<mxfile host="Electron" agent="Mozilla/5.0 (X11; Linux x86_64) AppleWebKit/537.36 (KHTML, like Gecko) draw.io/24.7.5 Chrome/126.0.6478.183 Electron/31.3.0 Safari/537.36" version="24.7.5">
  <diagram name="Page-1" id="rB0Kyxy1WQQpFUUbXWib">
    <mxGraphModel dx="2358" dy="1322" grid="1" gridSize="10" guides="1" tooltips="1" connect="1" arrows="1" fold="1" page="0" pageScale="1" pageWidth="827" pageHeight="1169" math="0" shadow="0">
      <root>
        <mxCell id="0" />
        <mxCell id="1" parent="0" />
        <mxCell id="WkOIs3FunbEa-x-7-6zS-24" value="" style="rounded=1;whiteSpace=wrap;html=1;" parent="1" vertex="1">
          <mxGeometry x="1200" y="4160" width="360" height="440" as="geometry" />
        </mxCell>
        <mxCell id="q5XF0nJhdmvQj78EgWsg-307" value="" style="rounded=1;whiteSpace=wrap;html=1;" parent="1" vertex="1">
          <mxGeometry x="920" y="3360" width="840" height="640" as="geometry" />
        </mxCell>
        <mxCell id="q5XF0nJhdmvQj78EgWsg-250" value="" style="rounded=1;whiteSpace=wrap;html=1;" parent="1" vertex="1">
          <mxGeometry x="1070" y="2680" width="970" height="480" as="geometry" />
        </mxCell>
        <mxCell id="q5XF0nJhdmvQj78EgWsg-204" value="" style="rounded=1;whiteSpace=wrap;html=1;" parent="1" vertex="1">
          <mxGeometry x="1080" y="1960" width="880" height="480" as="geometry" />
        </mxCell>
        <mxCell id="q5XF0nJhdmvQj78EgWsg-171" value="" style="rounded=1;whiteSpace=wrap;html=1;" parent="1" vertex="1">
          <mxGeometry x="1080" y="1040" width="840" height="710" as="geometry" />
        </mxCell>
        <mxCell id="q5XF0nJhdmvQj78EgWsg-170" value="" style="rounded=1;whiteSpace=wrap;html=1;" parent="1" vertex="1">
          <mxGeometry x="1200" y="670" width="360" height="310" as="geometry" />
        </mxCell>
        <mxCell id="q5XF0nJhdmvQj78EgWsg-169" value="" style="rounded=1;whiteSpace=wrap;html=1;" parent="1" vertex="1">
          <mxGeometry x="1080" y="120" width="600" height="520" as="geometry" />
        </mxCell>
        <mxCell id="q5XF0nJhdmvQj78EgWsg-1" value="" style="whiteSpace=wrap;html=1;aspect=fixed;fillColor=#f8cecc;strokeColor=#b85450;" parent="1" vertex="1">
          <mxGeometry x="120" y="160" width="40" height="40" as="geometry" />
        </mxCell>
        <mxCell id="q5XF0nJhdmvQj78EgWsg-2" value="" style="whiteSpace=wrap;html=1;aspect=fixed;" parent="1" vertex="1">
          <mxGeometry x="120" y="200" width="40" height="40" as="geometry" />
        </mxCell>
        <mxCell id="q5XF0nJhdmvQj78EgWsg-3" value="" style="whiteSpace=wrap;html=1;aspect=fixed;" parent="1" vertex="1">
          <mxGeometry x="120" y="240" width="40" height="40" as="geometry" />
        </mxCell>
        <mxCell id="q5XF0nJhdmvQj78EgWsg-4" value="Callable" style="text;html=1;align=center;verticalAlign=middle;whiteSpace=wrap;rounded=0;" parent="1" vertex="1">
          <mxGeometry x="170" y="165" width="60" height="30" as="geometry" />
        </mxCell>
        <mxCell id="q5XF0nJhdmvQj78EgWsg-5" value="Arg" style="text;html=1;align=center;verticalAlign=middle;whiteSpace=wrap;rounded=0;" parent="1" vertex="1">
          <mxGeometry x="170" y="205" width="60" height="30" as="geometry" />
        </mxCell>
        <mxCell id="q5XF0nJhdmvQj78EgWsg-6" value="Arg" style="text;html=1;align=center;verticalAlign=middle;whiteSpace=wrap;rounded=0;" parent="1" vertex="1">
          <mxGeometry x="170" y="245" width="60" height="30" as="geometry" />
        </mxCell>
        <mxCell id="q5XF0nJhdmvQj78EgWsg-7" value="" style="whiteSpace=wrap;html=1;aspect=fixed;fillColor=#dae8fc;strokeColor=#6c8ebf;" parent="1" vertex="1">
          <mxGeometry x="120" y="280" width="40" height="40" as="geometry" />
        </mxCell>
        <mxCell id="q5XF0nJhdmvQj78EgWsg-8" value="" style="whiteSpace=wrap;html=1;aspect=fixed;fillColor=#f8cecc;strokeColor=#b85450;" parent="1" vertex="1">
          <mxGeometry x="320" y="120" width="40" height="40" as="geometry" />
        </mxCell>
        <mxCell id="q5XF0nJhdmvQj78EgWsg-9" value="" style="whiteSpace=wrap;html=1;aspect=fixed;" parent="1" vertex="1">
          <mxGeometry x="320" y="200" width="40" height="40" as="geometry" />
        </mxCell>
        <mxCell id="q5XF0nJhdmvQj78EgWsg-10" value="" style="whiteSpace=wrap;html=1;aspect=fixed;" parent="1" vertex="1">
          <mxGeometry x="320" y="240" width="40" height="40" as="geometry" />
        </mxCell>
        <mxCell id="q5XF0nJhdmvQj78EgWsg-11" value="Callable" style="text;html=1;align=center;verticalAlign=middle;whiteSpace=wrap;rounded=0;" parent="1" vertex="1">
          <mxGeometry x="370" y="125" width="60" height="30" as="geometry" />
        </mxCell>
        <mxCell id="q5XF0nJhdmvQj78EgWsg-12" value="Arg" style="text;html=1;align=center;verticalAlign=middle;whiteSpace=wrap;rounded=0;" parent="1" vertex="1">
          <mxGeometry x="370" y="205" width="60" height="30" as="geometry" />
        </mxCell>
        <mxCell id="q5XF0nJhdmvQj78EgWsg-13" value="Arg" style="text;html=1;align=center;verticalAlign=middle;whiteSpace=wrap;rounded=0;" parent="1" vertex="1">
          <mxGeometry x="370" y="245" width="60" height="30" as="geometry" />
        </mxCell>
        <mxCell id="q5XF0nJhdmvQj78EgWsg-14" value="" style="whiteSpace=wrap;html=1;aspect=fixed;fillColor=#dae8fc;strokeColor=#6c8ebf;" parent="1" vertex="1">
          <mxGeometry x="320" y="280" width="40" height="40" as="geometry" />
        </mxCell>
        <mxCell id="q5XF0nJhdmvQj78EgWsg-15" value="1. Pop Callable" style="rounded=0;whiteSpace=wrap;html=1;fontStyle=1;fontSize=14;" parent="1" vertex="1">
          <mxGeometry x="280" y="40" width="120" height="60" as="geometry" />
        </mxCell>
        <mxCell id="q5XF0nJhdmvQj78EgWsg-22" value="" style="edgeStyle=orthogonalEdgeStyle;rounded=0;orthogonalLoop=1;jettySize=auto;html=1;" parent="1" source="q5XF0nJhdmvQj78EgWsg-16" target="q5XF0nJhdmvQj78EgWsg-17" edge="1">
          <mxGeometry relative="1" as="geometry" />
        </mxCell>
        <mxCell id="q5XF0nJhdmvQj78EgWsg-23" style="edgeStyle=orthogonalEdgeStyle;rounded=0;orthogonalLoop=1;jettySize=auto;html=1;entryX=0;entryY=0.5;entryDx=0;entryDy=0;" parent="1" source="q5XF0nJhdmvQj78EgWsg-16" target="q5XF0nJhdmvQj78EgWsg-18" edge="1">
          <mxGeometry relative="1" as="geometry" />
        </mxCell>
        <mxCell id="q5XF0nJhdmvQj78EgWsg-24" style="edgeStyle=orthogonalEdgeStyle;rounded=0;orthogonalLoop=1;jettySize=auto;html=1;entryX=0;entryY=0.5;entryDx=0;entryDy=0;" parent="1" source="q5XF0nJhdmvQj78EgWsg-16" target="q5XF0nJhdmvQj78EgWsg-19" edge="1">
          <mxGeometry relative="1" as="geometry" />
        </mxCell>
        <mxCell id="q5XF0nJhdmvQj78EgWsg-25" style="edgeStyle=orthogonalEdgeStyle;rounded=0;orthogonalLoop=1;jettySize=auto;html=1;entryX=0;entryY=0.5;entryDx=0;entryDy=0;" parent="1" source="q5XF0nJhdmvQj78EgWsg-16" target="q5XF0nJhdmvQj78EgWsg-20" edge="1">
          <mxGeometry relative="1" as="geometry" />
        </mxCell>
        <mxCell id="q5XF0nJhdmvQj78EgWsg-16" value="2. Switch on Callable Type" style="rounded=0;whiteSpace=wrap;html=1;fontStyle=1;fontSize=14;" parent="1" vertex="1">
          <mxGeometry x="480" y="200" width="120" height="60" as="geometry" />
        </mxCell>
        <mxCell id="q5XF0nJhdmvQj78EgWsg-27" style="edgeStyle=orthogonalEdgeStyle;rounded=0;orthogonalLoop=1;jettySize=auto;html=1;" parent="1" source="q5XF0nJhdmvQj78EgWsg-17" target="q5XF0nJhdmvQj78EgWsg-26" edge="1">
          <mxGeometry relative="1" as="geometry" />
        </mxCell>
        <mxCell id="q5XF0nJhdmvQj78EgWsg-17" value="A. PCLO" style="rounded=0;whiteSpace=wrap;html=1;fontStyle=1;fontSize=14;" parent="1" vertex="1">
          <mxGeometry x="680" y="200" width="120" height="60" as="geometry" />
        </mxCell>
        <mxCell id="q5XF0nJhdmvQj78EgWsg-173" style="edgeStyle=orthogonalEdgeStyle;rounded=0;orthogonalLoop=1;jettySize=auto;html=1;entryX=0;entryY=0.5;entryDx=0;entryDy=0;" parent="1" source="q5XF0nJhdmvQj78EgWsg-18" target="q5XF0nJhdmvQj78EgWsg-172" edge="1">
          <mxGeometry relative="1" as="geometry" />
        </mxCell>
        <mxCell id="q5XF0nJhdmvQj78EgWsg-18" value="B. CLO" style="rounded=0;whiteSpace=wrap;html=1;fontStyle=1;fontSize=14;" parent="1" vertex="1">
          <mxGeometry x="680" y="2000" width="120" height="60" as="geometry" />
        </mxCell>
        <mxCell id="q5XF0nJhdmvQj78EgWsg-257" style="edgeStyle=orthogonalEdgeStyle;rounded=0;orthogonalLoop=1;jettySize=auto;html=1;entryX=0;entryY=0.5;entryDx=0;entryDy=0;" parent="1" source="q5XF0nJhdmvQj78EgWsg-19" target="q5XF0nJhdmvQj78EgWsg-253" edge="1">
          <mxGeometry relative="1" as="geometry" />
        </mxCell>
        <mxCell id="q5XF0nJhdmvQj78EgWsg-19" value="C. KONT" style="rounded=0;whiteSpace=wrap;html=1;fontStyle=1;fontSize=14;" parent="1" vertex="1">
          <mxGeometry x="680" y="3240" width="120" height="60" as="geometry" />
        </mxCell>
        <mxCell id="q5XF0nJhdmvQj78EgWsg-20" value="D. BUILTIN" style="rounded=0;whiteSpace=wrap;html=1;fontStyle=1;fontSize=14;" parent="1" vertex="1">
          <mxGeometry x="680" y="4080" width="120" height="60" as="geometry" />
        </mxCell>
        <mxCell id="q5XF0nJhdmvQj78EgWsg-21" value="applyProc(nargs)" style="rounded=0;whiteSpace=wrap;html=1;fontStyle=1;fontSize=25;" parent="1" vertex="1">
          <mxGeometry x="-40" y="40" width="240" height="60" as="geometry" />
        </mxCell>
        <mxCell id="q5XF0nJhdmvQj78EgWsg-28" style="edgeStyle=orthogonalEdgeStyle;rounded=0;orthogonalLoop=1;jettySize=auto;html=1;" parent="1" source="q5XF0nJhdmvQj78EgWsg-26" edge="1">
          <mxGeometry relative="1" as="geometry">
            <mxPoint x="1240" y="230" as="targetPoint" />
          </mxGeometry>
        </mxCell>
        <mxCell id="q5XF0nJhdmvQj78EgWsg-29" value="Y" style="edgeLabel;html=1;align=center;verticalAlign=middle;resizable=0;points=[];fontSize=16;fontStyle=1" parent="q5XF0nJhdmvQj78EgWsg-28" vertex="1" connectable="0">
          <mxGeometry x="-0.2631" y="2" relative="1" as="geometry">
            <mxPoint x="-4" y="2" as="offset" />
          </mxGeometry>
        </mxCell>
        <mxCell id="q5XF0nJhdmvQj78EgWsg-83" style="edgeStyle=orthogonalEdgeStyle;rounded=0;orthogonalLoop=1;jettySize=auto;html=1;" parent="1" source="q5XF0nJhdmvQj78EgWsg-26" target="q5XF0nJhdmvQj78EgWsg-82" edge="1">
          <mxGeometry relative="1" as="geometry" />
        </mxCell>
        <mxCell id="q5XF0nJhdmvQj78EgWsg-84" value="N" style="edgeLabel;html=1;align=center;verticalAlign=middle;resizable=0;points=[];fontSize=16;fontStyle=1" parent="q5XF0nJhdmvQj78EgWsg-83" vertex="1" connectable="0">
          <mxGeometry x="-0.8" y="3" relative="1" as="geometry">
            <mxPoint x="-3" y="-2" as="offset" />
          </mxGeometry>
        </mxCell>
        <mxCell id="q5XF0nJhdmvQj78EgWsg-26" value="clo-&amp;gt;pending == nargs?" style="rounded=0;whiteSpace=wrap;html=1;fontStyle=1;fontFamily=Courier New;" parent="1" vertex="1">
          <mxGeometry x="920" y="200" width="200" height="60" as="geometry" />
        </mxCell>
        <mxCell id="q5XF0nJhdmvQj78EgWsg-31" value="" style="whiteSpace=wrap;html=1;aspect=fixed;" parent="1" vertex="1">
          <mxGeometry x="1280" y="240" width="40" height="40" as="geometry" />
        </mxCell>
        <mxCell id="q5XF0nJhdmvQj78EgWsg-32" value="" style="whiteSpace=wrap;html=1;aspect=fixed;" parent="1" vertex="1">
          <mxGeometry x="1280" y="280" width="40" height="40" as="geometry" />
        </mxCell>
        <mxCell id="q5XF0nJhdmvQj78EgWsg-33" value="Clo" style="text;html=1;align=center;verticalAlign=middle;whiteSpace=wrap;rounded=0;" parent="1" vertex="1">
          <mxGeometry x="1230" y="130" width="60" height="30" as="geometry" />
        </mxCell>
        <mxCell id="q5XF0nJhdmvQj78EgWsg-34" value="Arg" style="text;html=1;align=center;verticalAlign=middle;whiteSpace=wrap;rounded=0;" parent="1" vertex="1">
          <mxGeometry x="1330" y="245" width="60" height="30" as="geometry" />
        </mxCell>
        <mxCell id="q5XF0nJhdmvQj78EgWsg-35" value="Arg" style="text;html=1;align=center;verticalAlign=middle;whiteSpace=wrap;rounded=0;" parent="1" vertex="1">
          <mxGeometry x="1330" y="285" width="60" height="30" as="geometry" />
        </mxCell>
        <mxCell id="q5XF0nJhdmvQj78EgWsg-36" value="" style="whiteSpace=wrap;html=1;aspect=fixed;fillColor=#dae8fc;strokeColor=#6c8ebf;" parent="1" vertex="1">
          <mxGeometry x="1280" y="400" width="40" height="40" as="geometry" />
        </mxCell>
        <mxCell id="q5XF0nJhdmvQj78EgWsg-37" value="" style="whiteSpace=wrap;html=1;aspect=fixed;fillColor=#d5e8d4;strokeColor=#82b366;" parent="1" vertex="1">
          <mxGeometry x="1280" y="320" width="40" height="40" as="geometry" />
        </mxCell>
        <mxCell id="q5XF0nJhdmvQj78EgWsg-38" value="Captured" style="text;html=1;align=center;verticalAlign=middle;whiteSpace=wrap;rounded=0;" parent="1" vertex="1">
          <mxGeometry x="1330" y="325" width="60" height="30" as="geometry" />
        </mxCell>
        <mxCell id="q5XF0nJhdmvQj78EgWsg-39" value="" style="whiteSpace=wrap;html=1;aspect=fixed;fillColor=#d5e8d4;strokeColor=#82b366;" parent="1" vertex="1">
          <mxGeometry x="1280" y="360" width="40" height="40" as="geometry" />
        </mxCell>
        <mxCell id="q5XF0nJhdmvQj78EgWsg-40" value="Captured" style="text;html=1;align=center;verticalAlign=middle;whiteSpace=wrap;rounded=0;" parent="1" vertex="1">
          <mxGeometry x="1330" y="365" width="60" height="30" as="geometry" />
        </mxCell>
        <mxCell id="q5XF0nJhdmvQj78EgWsg-41" value="insert captured args" style="rounded=0;whiteSpace=wrap;html=1;fontStyle=1;fontSize=14;fillColor=#e1d5e7;strokeColor=#9673a6;" parent="1" vertex="1">
          <mxGeometry x="1520" y="300" width="120" height="60" as="geometry" />
        </mxCell>
        <mxCell id="q5XF0nJhdmvQj78EgWsg-42" value="C" style="whiteSpace=wrap;html=1;aspect=fixed;fontSize=18;fontStyle=1" parent="1" vertex="1">
          <mxGeometry x="-40" y="400" width="40" height="40" as="geometry" />
        </mxCell>
        <mxCell id="q5XF0nJhdmvQj78EgWsg-64" value="" style="edgeStyle=orthogonalEdgeStyle;rounded=0;orthogonalLoop=1;jettySize=auto;html=1;" parent="1" source="q5XF0nJhdmvQj78EgWsg-43" target="q5XF0nJhdmvQj78EgWsg-63" edge="1">
          <mxGeometry relative="1" as="geometry" />
        </mxCell>
        <mxCell id="q5XF0nJhdmvQj78EgWsg-43" value="E" style="whiteSpace=wrap;html=1;aspect=fixed;fontSize=18;fontStyle=1" parent="1" vertex="1">
          <mxGeometry y="400" width="40" height="40" as="geometry" />
        </mxCell>
        <mxCell id="q5XF0nJhdmvQj78EgWsg-69" style="edgeStyle=orthogonalEdgeStyle;rounded=0;orthogonalLoop=1;jettySize=auto;html=1;" parent="1" source="q5XF0nJhdmvQj78EgWsg-44" target="q5XF0nJhdmvQj78EgWsg-65" edge="1">
          <mxGeometry relative="1" as="geometry" />
        </mxCell>
        <mxCell id="q5XF0nJhdmvQj78EgWsg-44" value="K" style="whiteSpace=wrap;html=1;aspect=fixed;fontSize=18;fontStyle=1" parent="1" vertex="1">
          <mxGeometry x="40" y="400" width="40" height="40" as="geometry" />
        </mxCell>
        <mxCell id="q5XF0nJhdmvQj78EgWsg-76" style="edgeStyle=orthogonalEdgeStyle;rounded=0;orthogonalLoop=1;jettySize=auto;html=1;entryX=0.5;entryY=0;entryDx=0;entryDy=0;" parent="1" source="q5XF0nJhdmvQj78EgWsg-45" target="q5XF0nJhdmvQj78EgWsg-70" edge="1">
          <mxGeometry relative="1" as="geometry" />
        </mxCell>
        <mxCell id="q5XF0nJhdmvQj78EgWsg-45" value="F" style="whiteSpace=wrap;html=1;aspect=fixed;fontSize=18;fontStyle=1" parent="1" vertex="1">
          <mxGeometry x="80" y="400" width="40" height="40" as="geometry" />
        </mxCell>
        <mxCell id="q5XF0nJhdmvQj78EgWsg-47" value="" style="edgeStyle=orthogonalEdgeStyle;rounded=0;orthogonalLoop=1;jettySize=auto;html=1;" parent="1" source="q5XF0nJhdmvQj78EgWsg-46" target="q5XF0nJhdmvQj78EgWsg-7" edge="1">
          <mxGeometry relative="1" as="geometry" />
        </mxCell>
        <mxCell id="q5XF0nJhdmvQj78EgWsg-46" value="s" style="whiteSpace=wrap;html=1;aspect=fixed;fontSize=18;fontStyle=1" parent="1" vertex="1">
          <mxGeometry x="120" y="400" width="40" height="40" as="geometry" />
        </mxCell>
        <mxCell id="q5XF0nJhdmvQj78EgWsg-48" value="C" style="whiteSpace=wrap;html=1;aspect=fixed;fontSize=18;fontStyle=1" parent="1" vertex="1">
          <mxGeometry x="1120" y="520" width="40" height="40" as="geometry" />
        </mxCell>
        <mxCell id="q5XF0nJhdmvQj78EgWsg-49" value="E" style="whiteSpace=wrap;html=1;aspect=fixed;fontSize=18;fontStyle=1" parent="1" vertex="1">
          <mxGeometry x="1160" y="520" width="40" height="40" as="geometry" />
        </mxCell>
        <mxCell id="q5XF0nJhdmvQj78EgWsg-50" value="K" style="whiteSpace=wrap;html=1;aspect=fixed;fontSize=18;fontStyle=1" parent="1" vertex="1">
          <mxGeometry x="1200" y="520" width="40" height="40" as="geometry" />
        </mxCell>
        <mxCell id="q5XF0nJhdmvQj78EgWsg-51" value="F" style="whiteSpace=wrap;html=1;aspect=fixed;fontSize=18;fontStyle=1" parent="1" vertex="1">
          <mxGeometry x="1240" y="520" width="40" height="40" as="geometry" />
        </mxCell>
        <mxCell id="q5XF0nJhdmvQj78EgWsg-54" value="" style="edgeStyle=orthogonalEdgeStyle;rounded=0;orthogonalLoop=1;jettySize=auto;html=1;" parent="1" source="q5XF0nJhdmvQj78EgWsg-52" target="q5XF0nJhdmvQj78EgWsg-36" edge="1">
          <mxGeometry relative="1" as="geometry" />
        </mxCell>
        <mxCell id="q5XF0nJhdmvQj78EgWsg-52" value="s" style="whiteSpace=wrap;html=1;aspect=fixed;fontSize=18;fontStyle=1" parent="1" vertex="1">
          <mxGeometry x="1280" y="520" width="40" height="40" as="geometry" />
        </mxCell>
        <mxCell id="q5XF0nJhdmvQj78EgWsg-80" style="edgeStyle=orthogonalEdgeStyle;rounded=0;orthogonalLoop=1;jettySize=auto;html=1;entryX=0.5;entryY=0;entryDx=0;entryDy=0;" parent="1" source="q5XF0nJhdmvQj78EgWsg-55" target="q5XF0nJhdmvQj78EgWsg-48" edge="1">
          <mxGeometry relative="1" as="geometry">
            <Array as="points">
              <mxPoint x="1260" y="480" />
              <mxPoint x="1140" y="480" />
            </Array>
          </mxGeometry>
        </mxCell>
        <mxCell id="q5XF0nJhdmvQj78EgWsg-55" value="C" style="whiteSpace=wrap;html=1;aspect=fixed;fontSize=18;fontStyle=1;fillColor=#f8cecc;strokeColor=#b85450;" parent="1" vertex="1">
          <mxGeometry x="1240" y="160" width="40" height="40" as="geometry" />
        </mxCell>
        <mxCell id="q5XF0nJhdmvQj78EgWsg-60" style="edgeStyle=orthogonalEdgeStyle;rounded=0;orthogonalLoop=1;jettySize=auto;html=1;" parent="1" source="q5XF0nJhdmvQj78EgWsg-56" target="q5XF0nJhdmvQj78EgWsg-58" edge="1">
          <mxGeometry relative="1" as="geometry" />
        </mxCell>
        <mxCell id="q5XF0nJhdmvQj78EgWsg-56" value="E" style="whiteSpace=wrap;html=1;aspect=fixed;fontSize=18;fontStyle=1;fillColor=#f8cecc;strokeColor=#b85450;" parent="1" vertex="1">
          <mxGeometry x="1280" y="160" width="40" height="40" as="geometry" />
        </mxCell>
        <mxCell id="q5XF0nJhdmvQj78EgWsg-77" style="edgeStyle=orthogonalEdgeStyle;rounded=0;orthogonalLoop=1;jettySize=auto;html=1;" parent="1" source="q5XF0nJhdmvQj78EgWsg-58" edge="1">
          <mxGeometry relative="1" as="geometry">
            <mxPoint x="1400" y="360" as="targetPoint" />
            <Array as="points">
              <mxPoint x="1640" y="180" />
              <mxPoint x="1640" y="360" />
            </Array>
          </mxGeometry>
        </mxCell>
        <mxCell id="q5XF0nJhdmvQj78EgWsg-58" value="s" style="whiteSpace=wrap;html=1;aspect=fixed;fontSize=18;fontStyle=1" parent="1" vertex="1">
          <mxGeometry x="1440" y="160" width="40" height="40" as="geometry" />
        </mxCell>
        <mxCell id="q5XF0nJhdmvQj78EgWsg-78" style="edgeStyle=orthogonalEdgeStyle;rounded=0;orthogonalLoop=1;jettySize=auto;html=1;entryX=0.5;entryY=1;entryDx=0;entryDy=0;" parent="1" source="q5XF0nJhdmvQj78EgWsg-59" target="q5XF0nJhdmvQj78EgWsg-49" edge="1">
          <mxGeometry relative="1" as="geometry">
            <Array as="points">
              <mxPoint x="1460" y="600" />
              <mxPoint x="1180" y="600" />
            </Array>
          </mxGeometry>
        </mxCell>
        <mxCell id="q5XF0nJhdmvQj78EgWsg-59" value="E" style="whiteSpace=wrap;html=1;aspect=fixed;fontSize=18;fontStyle=1" parent="1" vertex="1">
          <mxGeometry x="1440" y="200" width="40" height="40" as="geometry" />
        </mxCell>
        <mxCell id="q5XF0nJhdmvQj78EgWsg-62" value="E" style="whiteSpace=wrap;html=1;aspect=fixed;fontSize=18;fontStyle=1" parent="1" vertex="1">
          <mxGeometry y="520" width="40" height="40" as="geometry" />
        </mxCell>
        <mxCell id="q5XF0nJhdmvQj78EgWsg-63" value="s" style="whiteSpace=wrap;html=1;aspect=fixed;fontSize=18;fontStyle=1" parent="1" vertex="1">
          <mxGeometry y="480" width="40" height="40" as="geometry" />
        </mxCell>
        <mxCell id="q5XF0nJhdmvQj78EgWsg-65" value="C" style="whiteSpace=wrap;html=1;aspect=fixed;fontSize=18;fontStyle=1" parent="1" vertex="1">
          <mxGeometry x="40" y="600" width="40" height="40" as="geometry" />
        </mxCell>
        <mxCell id="q5XF0nJhdmvQj78EgWsg-66" value="E" style="whiteSpace=wrap;html=1;aspect=fixed;fontSize=18;fontStyle=1" parent="1" vertex="1">
          <mxGeometry x="40" y="640" width="40" height="40" as="geometry" />
        </mxCell>
        <mxCell id="q5XF0nJhdmvQj78EgWsg-67" value="s" style="whiteSpace=wrap;html=1;aspect=fixed;fontSize=18;fontStyle=1" parent="1" vertex="1">
          <mxGeometry x="40" y="720" width="40" height="40" as="geometry" />
        </mxCell>
        <mxCell id="q5XF0nJhdmvQj78EgWsg-68" value="K" style="whiteSpace=wrap;html=1;aspect=fixed;fontSize=18;fontStyle=1" parent="1" vertex="1">
          <mxGeometry x="40" y="680" width="40" height="40" as="geometry" />
        </mxCell>
        <mxCell id="q5XF0nJhdmvQj78EgWsg-70" value="C" style="whiteSpace=wrap;html=1;aspect=fixed;fontSize=18;fontStyle=1" parent="1" vertex="1">
          <mxGeometry x="80" y="800" width="40" height="40" as="geometry" />
        </mxCell>
        <mxCell id="q5XF0nJhdmvQj78EgWsg-71" value="E" style="whiteSpace=wrap;html=1;aspect=fixed;fontSize=18;fontStyle=1" parent="1" vertex="1">
          <mxGeometry x="80" y="840" width="40" height="40" as="geometry" />
        </mxCell>
        <mxCell id="q5XF0nJhdmvQj78EgWsg-72" value="K" style="whiteSpace=wrap;html=1;aspect=fixed;fontSize=18;fontStyle=1" parent="1" vertex="1">
          <mxGeometry x="80" y="880" width="40" height="40" as="geometry" />
        </mxCell>
        <mxCell id="q5XF0nJhdmvQj78EgWsg-73" value="F" style="whiteSpace=wrap;html=1;aspect=fixed;fontSize=18;fontStyle=1" parent="1" vertex="1">
          <mxGeometry x="80" y="920" width="40" height="40" as="geometry" />
        </mxCell>
        <mxCell id="q5XF0nJhdmvQj78EgWsg-74" value="s" style="whiteSpace=wrap;html=1;aspect=fixed;fontSize=18;fontStyle=1" parent="1" vertex="1">
          <mxGeometry x="80" y="960" width="40" height="40" as="geometry" />
        </mxCell>
        <mxCell id="q5XF0nJhdmvQj78EgWsg-75" value="(b)" style="whiteSpace=wrap;html=1;aspect=fixed;fontSize=18;fontStyle=1" parent="1" vertex="1">
          <mxGeometry x="160" y="400" width="40" height="40" as="geometry" />
        </mxCell>
        <mxCell id="q5XF0nJhdmvQj78EgWsg-79" value="set next env" style="rounded=0;whiteSpace=wrap;html=1;fontStyle=1;fontSize=14;" parent="1" vertex="1">
          <mxGeometry x="1340" y="540" width="120" height="60" as="geometry" />
        </mxCell>
        <mxCell id="q5XF0nJhdmvQj78EgWsg-81" value="set next instruction" style="rounded=0;whiteSpace=wrap;html=1;fontStyle=1;fontSize=14;fillColor=#e1d5e7;strokeColor=#9673a6;" parent="1" vertex="1">
          <mxGeometry x="1140" y="420" width="120" height="60" as="geometry" />
        </mxCell>
        <mxCell id="q5XF0nJhdmvQj78EgWsg-92" style="edgeStyle=orthogonalEdgeStyle;rounded=0;orthogonalLoop=1;jettySize=auto;html=1;fontSize=14;" parent="1" source="q5XF0nJhdmvQj78EgWsg-82" target="q5XF0nJhdmvQj78EgWsg-94" edge="1">
          <mxGeometry relative="1" as="geometry">
            <mxPoint x="1240" y="750" as="targetPoint" />
          </mxGeometry>
        </mxCell>
        <mxCell id="q5XF0nJhdmvQj78EgWsg-93" value="Y" style="edgeLabel;html=1;align=center;verticalAlign=middle;resizable=0;points=[];fontSize=16;fontStyle=1" parent="q5XF0nJhdmvQj78EgWsg-92" vertex="1" connectable="0">
          <mxGeometry x="-0.6714" y="-1" relative="1" as="geometry">
            <mxPoint y="-1" as="offset" />
          </mxGeometry>
        </mxCell>
        <mxCell id="q5XF0nJhdmvQj78EgWsg-97" style="edgeStyle=orthogonalEdgeStyle;rounded=0;orthogonalLoop=1;jettySize=auto;html=1;" parent="1" source="q5XF0nJhdmvQj78EgWsg-82" target="q5XF0nJhdmvQj78EgWsg-96" edge="1">
          <mxGeometry relative="1" as="geometry" />
        </mxCell>
        <mxCell id="q5XF0nJhdmvQj78EgWsg-98" value="N" style="edgeLabel;html=1;align=center;verticalAlign=middle;resizable=0;points=[];fontSize=16;fontStyle=1" parent="q5XF0nJhdmvQj78EgWsg-97" vertex="1" connectable="0">
          <mxGeometry x="-0.7308" y="2" relative="1" as="geometry">
            <mxPoint as="offset" />
          </mxGeometry>
        </mxCell>
        <mxCell id="q5XF0nJhdmvQj78EgWsg-82" value="nargs == 0?" style="rounded=0;whiteSpace=wrap;html=1;fontStyle=1;fontFamily=Courier New;strokeColor=default;align=center;verticalAlign=middle;fontSize=12;fontColor=default;fillColor=default;" parent="1" vertex="1">
          <mxGeometry x="920" y="720" width="200" height="60" as="geometry" />
        </mxCell>
        <mxCell id="q5XF0nJhdmvQj78EgWsg-85" value="" style="whiteSpace=wrap;html=1;aspect=fixed;fillColor=#f8cecc;strokeColor=#b85450;" parent="1" vertex="1">
          <mxGeometry x="1280" y="790" width="40" height="40" as="geometry" />
        </mxCell>
        <mxCell id="q5XF0nJhdmvQj78EgWsg-86" value="" style="whiteSpace=wrap;html=1;aspect=fixed;" parent="1" vertex="1">
          <mxGeometry x="1280" y="830" width="40" height="40" as="geometry" />
        </mxCell>
        <mxCell id="q5XF0nJhdmvQj78EgWsg-87" value="" style="whiteSpace=wrap;html=1;aspect=fixed;" parent="1" vertex="1">
          <mxGeometry x="1280" y="870" width="40" height="40" as="geometry" />
        </mxCell>
        <mxCell id="q5XF0nJhdmvQj78EgWsg-88" value="Callable" style="text;html=1;align=center;verticalAlign=middle;whiteSpace=wrap;rounded=0;" parent="1" vertex="1">
          <mxGeometry x="1330" y="795" width="60" height="30" as="geometry" />
        </mxCell>
        <mxCell id="q5XF0nJhdmvQj78EgWsg-89" value="Arg" style="text;html=1;align=center;verticalAlign=middle;whiteSpace=wrap;rounded=0;" parent="1" vertex="1">
          <mxGeometry x="1330" y="835" width="60" height="30" as="geometry" />
        </mxCell>
        <mxCell id="q5XF0nJhdmvQj78EgWsg-90" value="Arg" style="text;html=1;align=center;verticalAlign=middle;whiteSpace=wrap;rounded=0;" parent="1" vertex="1">
          <mxGeometry x="1330" y="875" width="60" height="30" as="geometry" />
        </mxCell>
        <mxCell id="q5XF0nJhdmvQj78EgWsg-91" value="" style="whiteSpace=wrap;html=1;aspect=fixed;fillColor=#dae8fc;strokeColor=#6c8ebf;" parent="1" vertex="1">
          <mxGeometry x="1280" y="910" width="40" height="40" as="geometry" />
        </mxCell>
        <mxCell id="q5XF0nJhdmvQj78EgWsg-94" value="push clo" style="rounded=0;whiteSpace=wrap;html=1;fontStyle=1;fontSize=14;fillColor=#e1d5e7;strokeColor=#9673a6;" parent="1" vertex="1">
          <mxGeometry x="1240" y="720" width="120" height="60" as="geometry" />
        </mxCell>
        <mxCell id="q5XF0nJhdmvQj78EgWsg-95" value="calling a function that expects arguments with no arguments results in that function (a no-op)" style="shape=note;whiteSpace=wrap;html=1;backgroundOutline=1;darkOpacity=0.05;fillColor=#fff2cc;strokeColor=#d6b656;" parent="1" vertex="1">
          <mxGeometry x="1400" y="760" width="110" height="160" as="geometry" />
        </mxCell>
        <mxCell id="q5XF0nJhdmvQj78EgWsg-101" style="edgeStyle=orthogonalEdgeStyle;rounded=0;orthogonalLoop=1;jettySize=auto;html=1;" parent="1" source="q5XF0nJhdmvQj78EgWsg-96" target="q5XF0nJhdmvQj78EgWsg-100" edge="1">
          <mxGeometry relative="1" as="geometry" />
        </mxCell>
        <mxCell id="q5XF0nJhdmvQj78EgWsg-102" value="N" style="edgeLabel;html=1;align=center;verticalAlign=middle;resizable=0;points=[];fontSize=16;fontStyle=1" parent="q5XF0nJhdmvQj78EgWsg-101" vertex="1" connectable="0">
          <mxGeometry x="-0.5" y="1" relative="1" as="geometry">
            <mxPoint as="offset" />
          </mxGeometry>
        </mxCell>
        <mxCell id="q5XF0nJhdmvQj78EgWsg-110" style="edgeStyle=orthogonalEdgeStyle;rounded=0;orthogonalLoop=1;jettySize=auto;html=1;entryX=0;entryY=0.5;entryDx=0;entryDy=0;" parent="1" source="q5XF0nJhdmvQj78EgWsg-96" target="q5XF0nJhdmvQj78EgWsg-109" edge="1">
          <mxGeometry relative="1" as="geometry" />
        </mxCell>
        <mxCell id="q5XF0nJhdmvQj78EgWsg-111" value="Y" style="edgeLabel;html=1;align=center;verticalAlign=middle;resizable=0;points=[];fontSize=16;fontStyle=1" parent="q5XF0nJhdmvQj78EgWsg-110" vertex="1" connectable="0">
          <mxGeometry x="-0.6767" y="-3" relative="1" as="geometry">
            <mxPoint x="1" y="-3" as="offset" />
          </mxGeometry>
        </mxCell>
        <mxCell id="q5XF0nJhdmvQj78EgWsg-96" value="nargs &amp;lt; clo-&amp;gt;pending?" style="rounded=0;whiteSpace=wrap;html=1;fontStyle=1;fontFamily=Courier New;" parent="1" vertex="1">
          <mxGeometry x="920" y="1200" width="200" height="60" as="geometry" />
        </mxCell>
        <mxCell id="q5XF0nJhdmvQj78EgWsg-100" value="ERROR" style="rounded=0;whiteSpace=wrap;html=1;fontSize=16;fontStyle=1;fillColor=#e1d5e7;strokeColor=#9673a6;" parent="1" vertex="1">
          <mxGeometry x="960" y="1840" width="120" height="60" as="geometry" />
        </mxCell>
        <mxCell id="q5XF0nJhdmvQj78EgWsg-103" value="over-application not supported yet" style="shape=note;whiteSpace=wrap;html=1;backgroundOutline=1;darkOpacity=0.05;fillColor=#fff2cc;strokeColor=#d6b656;" parent="1" vertex="1">
          <mxGeometry x="1100" y="1810" width="80" height="100" as="geometry" />
        </mxCell>
        <mxCell id="q5XF0nJhdmvQj78EgWsg-104" value="p" style="whiteSpace=wrap;html=1;aspect=fixed;fontSize=18;fontStyle=1;fillColor=#f8cecc;strokeColor=#b85450;" parent="1" vertex="1">
          <mxGeometry x="1200" y="160" width="40" height="40" as="geometry" />
        </mxCell>
        <mxCell id="q5XF0nJhdmvQj78EgWsg-105" value="Clo" style="text;html=1;align=center;verticalAlign=middle;whiteSpace=wrap;rounded=0;" parent="1" vertex="1">
          <mxGeometry x="1290" y="1290" width="60" height="30" as="geometry" />
        </mxCell>
        <mxCell id="q5XF0nJhdmvQj78EgWsg-157" style="edgeStyle=orthogonalEdgeStyle;rounded=0;orthogonalLoop=1;jettySize=auto;html=1;entryX=0.5;entryY=0;entryDx=0;entryDy=0;" parent="1" source="q5XF0nJhdmvQj78EgWsg-106" target="q5XF0nJhdmvQj78EgWsg-153" edge="1">
          <mxGeometry relative="1" as="geometry">
            <Array as="points">
              <mxPoint x="1320" y="1380" />
              <mxPoint x="1420" y="1380" />
              <mxPoint x="1420" y="1560" />
              <mxPoint x="1500" y="1560" />
            </Array>
          </mxGeometry>
        </mxCell>
        <mxCell id="q5XF0nJhdmvQj78EgWsg-106" value="C" style="whiteSpace=wrap;html=1;aspect=fixed;fontSize=18;fontStyle=1;fillColor=#f8cecc;strokeColor=#b85450;" parent="1" vertex="1">
          <mxGeometry x="1300" y="1320" width="40" height="40" as="geometry" />
        </mxCell>
        <mxCell id="q5XF0nJhdmvQj78EgWsg-119" style="edgeStyle=orthogonalEdgeStyle;rounded=0;orthogonalLoop=1;jettySize=auto;html=1;entryX=0;entryY=0.5;entryDx=0;entryDy=0;" parent="1" source="q5XF0nJhdmvQj78EgWsg-107" target="q5XF0nJhdmvQj78EgWsg-117" edge="1">
          <mxGeometry relative="1" as="geometry" />
        </mxCell>
        <mxCell id="q5XF0nJhdmvQj78EgWsg-107" value="E" style="whiteSpace=wrap;html=1;aspect=fixed;fontSize=18;fontStyle=1;fillColor=#f8cecc;strokeColor=#b85450;" parent="1" vertex="1">
          <mxGeometry x="1340" y="1320" width="40" height="40" as="geometry" />
        </mxCell>
        <mxCell id="q5XF0nJhdmvQj78EgWsg-108" value="p" style="whiteSpace=wrap;html=1;aspect=fixed;fontSize=18;fontStyle=1;fillColor=#f8cecc;strokeColor=#b85450;" parent="1" vertex="1">
          <mxGeometry x="1260" y="1320" width="40" height="40" as="geometry" />
        </mxCell>
        <mxCell id="q5XF0nJhdmvQj78EgWsg-109" value="construct new pclo" style="rounded=0;whiteSpace=wrap;html=1;fontStyle=1;fontSize=14;fillColor=#e1d5e7;strokeColor=#9673a6;" parent="1" vertex="1">
          <mxGeometry x="1240" y="1200" width="120" height="60" as="geometry" />
        </mxCell>
        <mxCell id="q5XF0nJhdmvQj78EgWsg-112" value="" style="whiteSpace=wrap;html=1;aspect=fixed;" parent="1" vertex="1">
          <mxGeometry x="1300" y="1400" width="40" height="40" as="geometry" />
        </mxCell>
        <mxCell id="q5XF0nJhdmvQj78EgWsg-113" value="" style="whiteSpace=wrap;html=1;aspect=fixed;" parent="1" vertex="1">
          <mxGeometry x="1300" y="1440" width="40" height="40" as="geometry" />
        </mxCell>
        <mxCell id="q5XF0nJhdmvQj78EgWsg-114" value="Arg" style="text;html=1;align=center;verticalAlign=middle;whiteSpace=wrap;rounded=0;" parent="1" vertex="1">
          <mxGeometry x="1350" y="1405" width="60" height="30" as="geometry" />
        </mxCell>
        <mxCell id="q5XF0nJhdmvQj78EgWsg-115" value="Arg" style="text;html=1;align=center;verticalAlign=middle;whiteSpace=wrap;rounded=0;" parent="1" vertex="1">
          <mxGeometry x="1350" y="1445" width="60" height="30" as="geometry" />
        </mxCell>
        <mxCell id="q5XF0nJhdmvQj78EgWsg-116" value="" style="whiteSpace=wrap;html=1;aspect=fixed;fillColor=#dae8fc;strokeColor=#6c8ebf;" parent="1" vertex="1">
          <mxGeometry x="1300" y="1480" width="40" height="40" as="geometry" />
        </mxCell>
        <mxCell id="q5XF0nJhdmvQj78EgWsg-127" style="edgeStyle=orthogonalEdgeStyle;rounded=0;orthogonalLoop=1;jettySize=auto;html=1;" parent="1" source="q5XF0nJhdmvQj78EgWsg-117" target="q5XF0nJhdmvQj78EgWsg-124" edge="1">
          <mxGeometry relative="1" as="geometry" />
        </mxCell>
        <mxCell id="q5XF0nJhdmvQj78EgWsg-117" value="s" style="whiteSpace=wrap;html=1;aspect=fixed;fontSize=18;fontStyle=1" parent="1" vertex="1">
          <mxGeometry x="1480" y="1320" width="40" height="40" as="geometry" />
        </mxCell>
        <mxCell id="q5XF0nJhdmvQj78EgWsg-118" value="E" style="whiteSpace=wrap;html=1;aspect=fixed;fontSize=18;fontStyle=1" parent="1" vertex="1">
          <mxGeometry x="1480" y="1360" width="40" height="40" as="geometry" />
        </mxCell>
        <mxCell id="q5XF0nJhdmvQj78EgWsg-141" style="edgeStyle=orthogonalEdgeStyle;rounded=0;orthogonalLoop=1;jettySize=auto;html=1;entryX=0;entryY=0.5;entryDx=0;entryDy=0;" parent="1" source="q5XF0nJhdmvQj78EgWsg-120" target="q5XF0nJhdmvQj78EgWsg-137" edge="1">
          <mxGeometry relative="1" as="geometry" />
        </mxCell>
        <mxCell id="q5XF0nJhdmvQj78EgWsg-120" value="s" style="whiteSpace=wrap;html=1;aspect=fixed;fontSize=18;fontStyle=1" parent="1" vertex="1">
          <mxGeometry x="1640" y="1280" width="40" height="40" as="geometry" />
        </mxCell>
        <mxCell id="q5XF0nJhdmvQj78EgWsg-150" style="edgeStyle=orthogonalEdgeStyle;rounded=0;orthogonalLoop=1;jettySize=auto;html=1;entryX=1;entryY=0.5;entryDx=0;entryDy=0;" parent="1" source="q5XF0nJhdmvQj78EgWsg-121" target="q5XF0nJhdmvQj78EgWsg-118" edge="1">
          <mxGeometry relative="1" as="geometry" />
        </mxCell>
        <mxCell id="q5XF0nJhdmvQj78EgWsg-121" value="E" style="whiteSpace=wrap;html=1;aspect=fixed;fontSize=18;fontStyle=1" parent="1" vertex="1">
          <mxGeometry x="1640" y="1320" width="40" height="40" as="geometry" />
        </mxCell>
        <mxCell id="q5XF0nJhdmvQj78EgWsg-123" value="1. create new env with combined args stack" style="rounded=0;whiteSpace=wrap;html=1;fontStyle=1;fontSize=14;fillColor=#e1d5e7;strokeColor=#9673a6;" parent="1" vertex="1">
          <mxGeometry x="1620" y="1080" width="240" height="60" as="geometry" />
        </mxCell>
        <mxCell id="q5XF0nJhdmvQj78EgWsg-124" value="" style="whiteSpace=wrap;html=1;aspect=fixed;fillColor=#d5e8d4;strokeColor=#82b366;" parent="1" vertex="1">
          <mxGeometry x="1480" y="1240" width="40" height="40" as="geometry" />
        </mxCell>
        <mxCell id="q5XF0nJhdmvQj78EgWsg-125" value="" style="whiteSpace=wrap;html=1;aspect=fixed;fillColor=#d5e8d4;strokeColor=#82b366;" parent="1" vertex="1">
          <mxGeometry x="1480" y="1200" width="40" height="40" as="geometry" />
        </mxCell>
        <mxCell id="q5XF0nJhdmvQj78EgWsg-128" value="C" style="whiteSpace=wrap;html=1;aspect=fixed;fontSize=18;fontStyle=1" parent="1" vertex="1">
          <mxGeometry x="1140" y="1600" width="40" height="40" as="geometry" />
        </mxCell>
        <mxCell id="q5XF0nJhdmvQj78EgWsg-129" value="E" style="whiteSpace=wrap;html=1;aspect=fixed;fontSize=18;fontStyle=1" parent="1" vertex="1">
          <mxGeometry x="1180" y="1600" width="40" height="40" as="geometry" />
        </mxCell>
        <mxCell id="q5XF0nJhdmvQj78EgWsg-130" value="K" style="whiteSpace=wrap;html=1;aspect=fixed;fontSize=18;fontStyle=1" parent="1" vertex="1">
          <mxGeometry x="1220" y="1600" width="40" height="40" as="geometry" />
        </mxCell>
        <mxCell id="q5XF0nJhdmvQj78EgWsg-131" value="F" style="whiteSpace=wrap;html=1;aspect=fixed;fontSize=18;fontStyle=1" parent="1" vertex="1">
          <mxGeometry x="1260" y="1600" width="40" height="40" as="geometry" />
        </mxCell>
        <mxCell id="q5XF0nJhdmvQj78EgWsg-133" value="" style="edgeStyle=orthogonalEdgeStyle;rounded=0;orthogonalLoop=1;jettySize=auto;html=1;" parent="1" source="q5XF0nJhdmvQj78EgWsg-132" target="q5XF0nJhdmvQj78EgWsg-116" edge="1">
          <mxGeometry relative="1" as="geometry" />
        </mxCell>
        <mxCell id="q5XF0nJhdmvQj78EgWsg-132" value="s" style="whiteSpace=wrap;html=1;aspect=fixed;fontSize=18;fontStyle=1" parent="1" vertex="1">
          <mxGeometry x="1300" y="1600" width="40" height="40" as="geometry" />
        </mxCell>
        <mxCell id="q5XF0nJhdmvQj78EgWsg-137" value="" style="whiteSpace=wrap;html=1;aspect=fixed;fillColor=#d5e8d4;strokeColor=#82b366;" parent="1" vertex="1">
          <mxGeometry x="1720" y="1280" width="40" height="40" as="geometry" />
        </mxCell>
        <mxCell id="q5XF0nJhdmvQj78EgWsg-138" value="" style="whiteSpace=wrap;html=1;aspect=fixed;fillColor=#d5e8d4;strokeColor=#82b366;" parent="1" vertex="1">
          <mxGeometry x="1720" y="1240" width="40" height="40" as="geometry" />
        </mxCell>
        <mxCell id="q5XF0nJhdmvQj78EgWsg-142" value="" style="whiteSpace=wrap;html=1;aspect=fixed;" parent="1" vertex="1">
          <mxGeometry x="1720" y="1160" width="40" height="40" as="geometry" />
        </mxCell>
        <mxCell id="q5XF0nJhdmvQj78EgWsg-143" value="" style="whiteSpace=wrap;html=1;aspect=fixed;" parent="1" vertex="1">
          <mxGeometry x="1720" y="1200" width="40" height="40" as="geometry" />
        </mxCell>
        <mxCell id="q5XF0nJhdmvQj78EgWsg-144" value="Arg" style="text;html=1;align=center;verticalAlign=middle;whiteSpace=wrap;rounded=0;" parent="1" vertex="1">
          <mxGeometry x="1770" y="1165" width="60" height="30" as="geometry" />
        </mxCell>
        <mxCell id="q5XF0nJhdmvQj78EgWsg-145" value="Arg" style="text;html=1;align=center;verticalAlign=middle;whiteSpace=wrap;rounded=0;" parent="1" vertex="1">
          <mxGeometry x="1770" y="1205" width="60" height="30" as="geometry" />
        </mxCell>
        <mxCell id="q5XF0nJhdmvQj78EgWsg-146" value="Captured" style="text;html=1;align=center;verticalAlign=middle;whiteSpace=wrap;rounded=0;" parent="1" vertex="1">
          <mxGeometry x="1410" y="1210" width="60" height="30" as="geometry" />
        </mxCell>
        <mxCell id="q5XF0nJhdmvQj78EgWsg-147" value="Captured" style="text;html=1;align=center;verticalAlign=middle;whiteSpace=wrap;rounded=0;" parent="1" vertex="1">
          <mxGeometry x="1410" y="1245" width="60" height="30" as="geometry" />
        </mxCell>
        <mxCell id="q5XF0nJhdmvQj78EgWsg-148" value="Captured" style="text;html=1;align=center;verticalAlign=middle;whiteSpace=wrap;rounded=0;" parent="1" vertex="1">
          <mxGeometry x="1770" y="1245" width="60" height="30" as="geometry" />
        </mxCell>
        <mxCell id="q5XF0nJhdmvQj78EgWsg-149" value="Captured" style="text;html=1;align=center;verticalAlign=middle;whiteSpace=wrap;rounded=0;" parent="1" vertex="1">
          <mxGeometry x="1770" y="1285" width="60" height="30" as="geometry" />
        </mxCell>
        <mxCell id="q5XF0nJhdmvQj78EgWsg-152" value="2. create new pclo" style="rounded=0;whiteSpace=wrap;html=1;fontStyle=1;fontSize=14;fillColor=#e1d5e7;strokeColor=#9673a6;" parent="1" vertex="1">
          <mxGeometry x="1440" y="1650" width="120" height="60" as="geometry" />
        </mxCell>
        <mxCell id="q5XF0nJhdmvQj78EgWsg-153" value="C" style="whiteSpace=wrap;html=1;aspect=fixed;fontSize=18;fontStyle=1;fillColor=#f8cecc;strokeColor=#b85450;" parent="1" vertex="1">
          <mxGeometry x="1480" y="1600" width="40" height="40" as="geometry" />
        </mxCell>
        <mxCell id="q5XF0nJhdmvQj78EgWsg-156" style="edgeStyle=orthogonalEdgeStyle;rounded=0;orthogonalLoop=1;jettySize=auto;html=1;entryX=0;entryY=0.5;entryDx=0;entryDy=0;" parent="1" source="q5XF0nJhdmvQj78EgWsg-154" target="q5XF0nJhdmvQj78EgWsg-120" edge="1">
          <mxGeometry relative="1" as="geometry" />
        </mxCell>
        <mxCell id="q5XF0nJhdmvQj78EgWsg-154" value="E" style="whiteSpace=wrap;html=1;aspect=fixed;fontSize=18;fontStyle=1;fillColor=#f8cecc;strokeColor=#b85450;" parent="1" vertex="1">
          <mxGeometry x="1520" y="1600" width="40" height="40" as="geometry" />
        </mxCell>
        <mxCell id="q5XF0nJhdmvQj78EgWsg-155" value="p-n" style="whiteSpace=wrap;html=1;aspect=fixed;fontSize=18;fontStyle=1;fillColor=#f8cecc;strokeColor=#b85450;" parent="1" vertex="1">
          <mxGeometry x="1440" y="1600" width="40" height="40" as="geometry" />
        </mxCell>
        <mxCell id="q5XF0nJhdmvQj78EgWsg-158" value="" style="whiteSpace=wrap;html=1;aspect=fixed;fillColor=#dae8fc;strokeColor=#6c8ebf;" parent="1" vertex="1">
          <mxGeometry x="1840" y="1440" width="40" height="40" as="geometry" />
        </mxCell>
        <mxCell id="q5XF0nJhdmvQj78EgWsg-159" value="C" style="whiteSpace=wrap;html=1;aspect=fixed;fontSize=18;fontStyle=1" parent="1" vertex="1">
          <mxGeometry x="1680" y="1560" width="40" height="40" as="geometry" />
        </mxCell>
        <mxCell id="q5XF0nJhdmvQj78EgWsg-160" value="E" style="whiteSpace=wrap;html=1;aspect=fixed;fontSize=18;fontStyle=1" parent="1" vertex="1">
          <mxGeometry x="1720" y="1560" width="40" height="40" as="geometry" />
        </mxCell>
        <mxCell id="q5XF0nJhdmvQj78EgWsg-161" value="K" style="whiteSpace=wrap;html=1;aspect=fixed;fontSize=18;fontStyle=1" parent="1" vertex="1">
          <mxGeometry x="1760" y="1560" width="40" height="40" as="geometry" />
        </mxCell>
        <mxCell id="q5XF0nJhdmvQj78EgWsg-162" value="F" style="whiteSpace=wrap;html=1;aspect=fixed;fontSize=18;fontStyle=1" parent="1" vertex="1">
          <mxGeometry x="1800" y="1560" width="40" height="40" as="geometry" />
        </mxCell>
        <mxCell id="q5XF0nJhdmvQj78EgWsg-163" value="" style="edgeStyle=orthogonalEdgeStyle;rounded=0;orthogonalLoop=1;jettySize=auto;html=1;" parent="1" source="q5XF0nJhdmvQj78EgWsg-164" target="q5XF0nJhdmvQj78EgWsg-158" edge="1">
          <mxGeometry relative="1" as="geometry" />
        </mxCell>
        <mxCell id="q5XF0nJhdmvQj78EgWsg-164" value="s" style="whiteSpace=wrap;html=1;aspect=fixed;fontSize=18;fontStyle=1" parent="1" vertex="1">
          <mxGeometry x="1840" y="1560" width="40" height="40" as="geometry" />
        </mxCell>
        <mxCell id="q5XF0nJhdmvQj78EgWsg-165" value="3 pop nargs and push new pclo" style="rounded=0;whiteSpace=wrap;html=1;fontStyle=1;fontSize=14;fillColor=#e1d5e7;strokeColor=#9673a6;" parent="1" vertex="1">
          <mxGeometry x="1680" y="1440" width="120" height="60" as="geometry" />
        </mxCell>
        <mxCell id="q5XF0nJhdmvQj78EgWsg-166" value="" style="whiteSpace=wrap;html=1;aspect=fixed;fillColor=#f8cecc;strokeColor=#b85450;" parent="1" vertex="1">
          <mxGeometry x="1840" y="1400" width="40" height="40" as="geometry" />
        </mxCell>
        <mxCell id="q5XF0nJhdmvQj78EgWsg-175" value="" style="edgeStyle=orthogonalEdgeStyle;rounded=0;orthogonalLoop=1;jettySize=auto;html=1;" parent="1" source="q5XF0nJhdmvQj78EgWsg-172" target="q5XF0nJhdmvQj78EgWsg-174" edge="1">
          <mxGeometry relative="1" as="geometry" />
        </mxCell>
        <mxCell id="q5XF0nJhdmvQj78EgWsg-176" value="Y" style="edgeLabel;html=1;align=center;verticalAlign=middle;resizable=0;points=[];fontSize=16;fontStyle=1" parent="q5XF0nJhdmvQj78EgWsg-175" vertex="1" connectable="0">
          <mxGeometry x="-0.12" y="-3" relative="1" as="geometry">
            <mxPoint y="-3" as="offset" />
          </mxGeometry>
        </mxCell>
        <mxCell id="q5XF0nJhdmvQj78EgWsg-206" style="edgeStyle=orthogonalEdgeStyle;rounded=0;orthogonalLoop=1;jettySize=auto;html=1;entryX=0.5;entryY=0;entryDx=0;entryDy=0;" parent="1" source="q5XF0nJhdmvQj78EgWsg-172" target="q5XF0nJhdmvQj78EgWsg-205" edge="1">
          <mxGeometry relative="1" as="geometry" />
        </mxCell>
        <mxCell id="q5XF0nJhdmvQj78EgWsg-207" value="N" style="edgeLabel;html=1;align=center;verticalAlign=middle;resizable=0;points=[];fontSize=16;fontStyle=1" parent="q5XF0nJhdmvQj78EgWsg-206" vertex="1" connectable="0">
          <mxGeometry x="-0.7912" y="-1" relative="1" as="geometry">
            <mxPoint as="offset" />
          </mxGeometry>
        </mxCell>
        <mxCell id="q5XF0nJhdmvQj78EgWsg-172" value="clo-&amp;gt;pending == nargs?" style="rounded=0;whiteSpace=wrap;html=1;fontStyle=1;fontFamily=Courier New;" parent="1" vertex="1">
          <mxGeometry x="920" y="2000" width="200" height="60" as="geometry" />
        </mxCell>
        <mxCell id="q5XF0nJhdmvQj78EgWsg-174" value="invoke closure" style="rounded=0;whiteSpace=wrap;html=1;fontStyle=1;fontSize=14;fillColor=#e1d5e7;strokeColor=#9673a6;" parent="1" vertex="1">
          <mxGeometry x="1200" y="2000" width="120" height="60" as="geometry" />
        </mxCell>
        <mxCell id="q5XF0nJhdmvQj78EgWsg-177" value="Clo" style="text;html=1;align=center;verticalAlign=middle;whiteSpace=wrap;rounded=0;" parent="1" vertex="1">
          <mxGeometry x="1430" y="2010" width="60" height="30" as="geometry" />
        </mxCell>
        <mxCell id="q5XF0nJhdmvQj78EgWsg-178" value="C" style="whiteSpace=wrap;html=1;aspect=fixed;fontSize=18;fontStyle=1;fillColor=#f8cecc;strokeColor=#b85450;" parent="1" vertex="1">
          <mxGeometry x="1440" y="2040" width="40" height="40" as="geometry" />
        </mxCell>
        <mxCell id="q5XF0nJhdmvQj78EgWsg-179" value="E" style="whiteSpace=wrap;html=1;aspect=fixed;fontSize=18;fontStyle=1;fillColor=#f8cecc;strokeColor=#b85450;" parent="1" vertex="1">
          <mxGeometry x="1480" y="2040" width="40" height="40" as="geometry" />
        </mxCell>
        <mxCell id="q5XF0nJhdmvQj78EgWsg-180" value="p" style="whiteSpace=wrap;html=1;aspect=fixed;fontSize=18;fontStyle=1;fillColor=#f8cecc;strokeColor=#b85450;" parent="1" vertex="1">
          <mxGeometry x="1400" y="2040" width="40" height="40" as="geometry" />
        </mxCell>
        <mxCell id="q5XF0nJhdmvQj78EgWsg-189" style="edgeStyle=orthogonalEdgeStyle;rounded=0;orthogonalLoop=1;jettySize=auto;html=1;startArrow=classic;startFill=1;endArrow=none;endFill=0;" parent="1" source="q5XF0nJhdmvQj78EgWsg-181" target="q5XF0nJhdmvQj78EgWsg-178" edge="1">
          <mxGeometry relative="1" as="geometry" />
        </mxCell>
        <mxCell id="q5XF0nJhdmvQj78EgWsg-181" value="C" style="whiteSpace=wrap;html=1;aspect=fixed;fontSize=18;fontStyle=1" parent="1" vertex="1">
          <mxGeometry x="1440" y="2160" width="40" height="40" as="geometry" />
        </mxCell>
        <mxCell id="q5XF0nJhdmvQj78EgWsg-190" style="edgeStyle=orthogonalEdgeStyle;rounded=0;orthogonalLoop=1;jettySize=auto;html=1;entryX=0.5;entryY=1;entryDx=0;entryDy=0;endArrow=none;endFill=0;startArrow=classic;startFill=1;" parent="1" source="q5XF0nJhdmvQj78EgWsg-182" target="q5XF0nJhdmvQj78EgWsg-179" edge="1">
          <mxGeometry relative="1" as="geometry" />
        </mxCell>
        <mxCell id="q5XF0nJhdmvQj78EgWsg-182" value="E" style="whiteSpace=wrap;html=1;aspect=fixed;fontSize=18;fontStyle=1" parent="1" vertex="1">
          <mxGeometry x="1480" y="2160" width="40" height="40" as="geometry" />
        </mxCell>
        <mxCell id="q5XF0nJhdmvQj78EgWsg-183" value="K" style="whiteSpace=wrap;html=1;aspect=fixed;fontSize=18;fontStyle=1" parent="1" vertex="1">
          <mxGeometry x="1520" y="2160" width="40" height="40" as="geometry" />
        </mxCell>
        <mxCell id="q5XF0nJhdmvQj78EgWsg-184" value="F" style="whiteSpace=wrap;html=1;aspect=fixed;fontSize=18;fontStyle=1" parent="1" vertex="1">
          <mxGeometry x="1560" y="2160" width="40" height="40" as="geometry" />
        </mxCell>
        <mxCell id="q5XF0nJhdmvQj78EgWsg-198" style="edgeStyle=orthogonalEdgeStyle;rounded=0;orthogonalLoop=1;jettySize=auto;html=1;entryX=0.5;entryY=0;entryDx=0;entryDy=0;" parent="1" source="q5XF0nJhdmvQj78EgWsg-185" target="q5XF0nJhdmvQj78EgWsg-194" edge="1">
          <mxGeometry relative="1" as="geometry" />
        </mxCell>
        <mxCell id="q5XF0nJhdmvQj78EgWsg-185" value="s" style="whiteSpace=wrap;html=1;aspect=fixed;fontSize=18;fontStyle=1" parent="1" vertex="1">
          <mxGeometry x="1600" y="2160" width="40" height="40" as="geometry" />
        </mxCell>
        <mxCell id="q5XF0nJhdmvQj78EgWsg-186" value="(b)" style="whiteSpace=wrap;html=1;aspect=fixed;fontSize=18;fontStyle=1" parent="1" vertex="1">
          <mxGeometry x="1640" y="2160" width="40" height="40" as="geometry" />
        </mxCell>
        <mxCell id="q5XF0nJhdmvQj78EgWsg-191" value="1. copy clo C &amp;amp; E to CEKFs" style="rounded=0;whiteSpace=wrap;html=1;fontStyle=1;fontSize=14;fillColor=#e1d5e7;strokeColor=#9673a6;" parent="1" vertex="1">
          <mxGeometry x="1560" y="2040" width="120" height="60" as="geometry" />
        </mxCell>
        <mxCell id="q5XF0nJhdmvQj78EgWsg-194" value="" style="whiteSpace=wrap;html=1;aspect=fixed;" parent="1" vertex="1">
          <mxGeometry x="1600" y="2280" width="40" height="40" as="geometry" />
        </mxCell>
        <mxCell id="q5XF0nJhdmvQj78EgWsg-195" value="" style="whiteSpace=wrap;html=1;aspect=fixed;" parent="1" vertex="1">
          <mxGeometry x="1600" y="2320" width="40" height="40" as="geometry" />
        </mxCell>
        <mxCell id="q5XF0nJhdmvQj78EgWsg-196" value="Arg" style="text;html=1;align=center;verticalAlign=middle;whiteSpace=wrap;rounded=0;" parent="1" vertex="1">
          <mxGeometry x="1650" y="2285" width="60" height="30" as="geometry" />
        </mxCell>
        <mxCell id="q5XF0nJhdmvQj78EgWsg-197" value="Arg" style="text;html=1;align=center;verticalAlign=middle;whiteSpace=wrap;rounded=0;" parent="1" vertex="1">
          <mxGeometry x="1650" y="2325" width="60" height="30" as="geometry" />
        </mxCell>
        <mxCell id="q5XF0nJhdmvQj78EgWsg-199" value="2. move args to base of stack" style="rounded=0;whiteSpace=wrap;html=1;fontStyle=1;fontSize=14;fillColor=#e1d5e7;strokeColor=#9673a6;" parent="1" vertex="1">
          <mxGeometry x="1720" y="2285" width="120" height="60" as="geometry" />
        </mxCell>
        <mxCell id="q5XF0nJhdmvQj78EgWsg-200" value="" style="whiteSpace=wrap;html=1;aspect=fixed;fillColor=#dae8fc;strokeColor=#6c8ebf;" parent="1" vertex="1">
          <mxGeometry x="1520" y="2360" width="40" height="40" as="geometry" />
        </mxCell>
        <mxCell id="q5XF0nJhdmvQj78EgWsg-201" value="" style="endArrow=none;html=1;rounded=0;strokeWidth=4;strokeColor=#FF0000;" parent="1" edge="1">
          <mxGeometry width="50" height="50" relative="1" as="geometry">
            <mxPoint x="1510" y="2410" as="sourcePoint" />
            <mxPoint x="1570" y="2350" as="targetPoint" />
          </mxGeometry>
        </mxCell>
        <mxCell id="q5XF0nJhdmvQj78EgWsg-202" value="" style="endArrow=none;html=1;rounded=0;strokeWidth=4;strokeColor=#FF0000;" parent="1" edge="1">
          <mxGeometry width="50" height="50" relative="1" as="geometry">
            <mxPoint x="1510" y="2350" as="sourcePoint" />
            <mxPoint x="1570" y="2410" as="targetPoint" />
          </mxGeometry>
        </mxCell>
        <mxCell id="q5XF0nJhdmvQj78EgWsg-203" value="what saves these values?" style="shape=note;whiteSpace=wrap;html=1;backgroundOutline=1;darkOpacity=0.05;fillColor=#fff2cc;strokeColor=#d6b656;" parent="1" vertex="1">
          <mxGeometry x="1400" y="2300" width="80" height="100" as="geometry" />
        </mxCell>
        <mxCell id="q5XF0nJhdmvQj78EgWsg-209" style="edgeStyle=orthogonalEdgeStyle;rounded=0;orthogonalLoop=1;jettySize=auto;html=1;entryX=0;entryY=0.5;entryDx=0;entryDy=0;" parent="1" source="q5XF0nJhdmvQj78EgWsg-205" target="q5XF0nJhdmvQj78EgWsg-208" edge="1">
          <mxGeometry relative="1" as="geometry" />
        </mxCell>
        <mxCell id="q5XF0nJhdmvQj78EgWsg-212" value="Y" style="edgeLabel;html=1;align=center;verticalAlign=middle;resizable=0;points=[];fontSize=16;fontStyle=1" parent="q5XF0nJhdmvQj78EgWsg-209" vertex="1" connectable="0">
          <mxGeometry x="-0.165" y="-1" relative="1" as="geometry">
            <mxPoint as="offset" />
          </mxGeometry>
        </mxCell>
        <mxCell id="q5XF0nJhdmvQj78EgWsg-213" style="edgeStyle=orthogonalEdgeStyle;rounded=0;orthogonalLoop=1;jettySize=auto;html=1;" parent="1" source="q5XF0nJhdmvQj78EgWsg-205" target="q5XF0nJhdmvQj78EgWsg-211" edge="1">
          <mxGeometry relative="1" as="geometry" />
        </mxCell>
        <mxCell id="q5XF0nJhdmvQj78EgWsg-214" value="N" style="edgeLabel;html=1;align=center;verticalAlign=middle;resizable=0;points=[];fontSize=16;fontStyle=1" parent="q5XF0nJhdmvQj78EgWsg-213" vertex="1" connectable="0">
          <mxGeometry x="-0.556" relative="1" as="geometry">
            <mxPoint as="offset" />
          </mxGeometry>
        </mxCell>
        <mxCell id="q5XF0nJhdmvQj78EgWsg-205" value="nargs == 0?" style="rounded=0;whiteSpace=wrap;html=1;fontStyle=1;fontFamily=Courier New;strokeColor=default;align=center;verticalAlign=middle;fontSize=12;fontColor=default;fillColor=default;" parent="1" vertex="1">
          <mxGeometry x="920" y="2560" width="200" height="60" as="geometry" />
        </mxCell>
        <mxCell id="q5XF0nJhdmvQj78EgWsg-208" value="push closure" style="rounded=0;whiteSpace=wrap;html=1;fontStyle=1;fontSize=14;fillColor=#e1d5e7;strokeColor=#9673a6;" parent="1" vertex="1">
          <mxGeometry x="1200" y="2560" width="120" height="60" as="geometry" />
        </mxCell>
        <mxCell id="q5XF0nJhdmvQj78EgWsg-210" value="no-op&lt;div&gt;again&lt;/div&gt;" style="shape=note;whiteSpace=wrap;html=1;backgroundOutline=1;darkOpacity=0.05;fillColor=#fff2cc;strokeColor=#d6b656;" parent="1" vertex="1">
          <mxGeometry x="1360" y="2540" width="80" height="100" as="geometry" />
        </mxCell>
        <mxCell id="q5XF0nJhdmvQj78EgWsg-216" value="" style="edgeStyle=orthogonalEdgeStyle;rounded=0;orthogonalLoop=1;jettySize=auto;html=1;" parent="1" source="q5XF0nJhdmvQj78EgWsg-211" target="q5XF0nJhdmvQj78EgWsg-215" edge="1">
          <mxGeometry relative="1" as="geometry" />
        </mxCell>
        <mxCell id="q5XF0nJhdmvQj78EgWsg-217" value="Y" style="edgeLabel;html=1;align=center;verticalAlign=middle;resizable=0;points=[];fontSize=16;fontStyle=1" parent="q5XF0nJhdmvQj78EgWsg-216" vertex="1" connectable="0">
          <mxGeometry x="-0.19" y="-2" relative="1" as="geometry">
            <mxPoint as="offset" />
          </mxGeometry>
        </mxCell>
        <mxCell id="q5XF0nJhdmvQj78EgWsg-211" value="nargs &amp;lt; clo-&amp;gt;pending?" style="rounded=0;whiteSpace=wrap;html=1;fontStyle=1;fontFamily=Courier New;strokeColor=default;align=center;verticalAlign=middle;fontSize=12;fontColor=default;fillColor=default;" parent="1" vertex="1">
          <mxGeometry x="920" y="2720" width="200" height="60" as="geometry" />
        </mxCell>
        <mxCell id="q5XF0nJhdmvQj78EgWsg-215" value="create pclo" style="rounded=0;whiteSpace=wrap;html=1;fontStyle=1;fontSize=14;fillColor=#e1d5e7;strokeColor=#9673a6;" parent="1" vertex="1">
          <mxGeometry x="1200" y="2720" width="120" height="60" as="geometry" />
        </mxCell>
        <mxCell id="q5XF0nJhdmvQj78EgWsg-236" style="edgeStyle=orthogonalEdgeStyle;rounded=0;orthogonalLoop=1;jettySize=auto;html=1;entryX=0.5;entryY=0;entryDx=0;entryDy=0;" parent="1" source="q5XF0nJhdmvQj78EgWsg-218" target="q5XF0nJhdmvQj78EgWsg-231" edge="1">
          <mxGeometry relative="1" as="geometry" />
        </mxCell>
        <mxCell id="q5XF0nJhdmvQj78EgWsg-237" value="=" style="edgeLabel;html=1;align=center;verticalAlign=middle;resizable=0;points=[];fontSize=16;fontStyle=1" parent="q5XF0nJhdmvQj78EgWsg-236" vertex="1" connectable="0">
          <mxGeometry x="0.062" y="2" relative="1" as="geometry">
            <mxPoint x="-2" y="4" as="offset" />
          </mxGeometry>
        </mxCell>
        <mxCell id="q5XF0nJhdmvQj78EgWsg-218" value="C" style="whiteSpace=wrap;html=1;aspect=fixed;fontSize=18;fontStyle=1;fillColor=#f8cecc;strokeColor=#b85450;" parent="1" vertex="1">
          <mxGeometry x="1400" y="2800" width="40" height="40" as="geometry" />
        </mxCell>
        <mxCell id="q5XF0nJhdmvQj78EgWsg-219" value="E" style="whiteSpace=wrap;html=1;aspect=fixed;fontSize=18;fontStyle=1;fillColor=#f8cecc;strokeColor=#b85450;" parent="1" vertex="1">
          <mxGeometry x="1440" y="2800" width="40" height="40" as="geometry" />
        </mxCell>
        <mxCell id="q5XF0nJhdmvQj78EgWsg-220" value="p" style="whiteSpace=wrap;html=1;aspect=fixed;fontSize=18;fontStyle=1;fillColor=#f8cecc;strokeColor=#b85450;" parent="1" vertex="1">
          <mxGeometry x="1360" y="2800" width="40" height="40" as="geometry" />
        </mxCell>
        <mxCell id="q5XF0nJhdmvQj78EgWsg-228" style="edgeStyle=orthogonalEdgeStyle;rounded=0;orthogonalLoop=1;jettySize=auto;html=1;entryX=0;entryY=0.5;entryDx=0;entryDy=0;" parent="1" source="q5XF0nJhdmvQj78EgWsg-221" target="q5XF0nJhdmvQj78EgWsg-223" edge="1">
          <mxGeometry relative="1" as="geometry" />
        </mxCell>
        <mxCell id="q5XF0nJhdmvQj78EgWsg-221" value="s" style="whiteSpace=wrap;html=1;aspect=fixed;fontSize=18;fontStyle=1" parent="1" vertex="1">
          <mxGeometry x="1520" y="2880" width="40" height="40" as="geometry" />
        </mxCell>
        <mxCell id="q5XF0nJhdmvQj78EgWsg-229" style="edgeStyle=orthogonalEdgeStyle;rounded=0;orthogonalLoop=1;jettySize=auto;html=1;entryX=0.5;entryY=1;entryDx=0;entryDy=0;" parent="1" source="q5XF0nJhdmvQj78EgWsg-222" target="q5XF0nJhdmvQj78EgWsg-219" edge="1">
          <mxGeometry relative="1" as="geometry" />
        </mxCell>
        <mxCell id="q5XF0nJhdmvQj78EgWsg-222" value="E" style="whiteSpace=wrap;html=1;aspect=fixed;fontSize=18;fontStyle=1" parent="1" vertex="1">
          <mxGeometry x="1520" y="2920" width="40" height="40" as="geometry" />
        </mxCell>
        <mxCell id="q5XF0nJhdmvQj78EgWsg-223" value="" style="whiteSpace=wrap;html=1;aspect=fixed;fillColor=#d5e8d4;strokeColor=#82b366;" parent="1" vertex="1">
          <mxGeometry x="1600" y="2880" width="40" height="40" as="geometry" />
        </mxCell>
        <mxCell id="q5XF0nJhdmvQj78EgWsg-224" value="" style="whiteSpace=wrap;html=1;aspect=fixed;fillColor=#d5e8d4;strokeColor=#82b366;" parent="1" vertex="1">
          <mxGeometry x="1600" y="2840" width="40" height="40" as="geometry" />
        </mxCell>
        <mxCell id="q5XF0nJhdmvQj78EgWsg-225" value="Captured" style="text;html=1;align=center;verticalAlign=middle;whiteSpace=wrap;rounded=0;" parent="1" vertex="1">
          <mxGeometry x="1650" y="2845" width="60" height="30" as="geometry" />
        </mxCell>
        <mxCell id="q5XF0nJhdmvQj78EgWsg-226" value="Captured" style="text;html=1;align=center;verticalAlign=middle;whiteSpace=wrap;rounded=0;" parent="1" vertex="1">
          <mxGeometry x="1650" y="2885" width="60" height="30" as="geometry" />
        </mxCell>
        <mxCell id="q5XF0nJhdmvQj78EgWsg-252" style="edgeStyle=orthogonalEdgeStyle;rounded=0;orthogonalLoop=1;jettySize=auto;html=1;entryX=0.5;entryY=0;entryDx=0;entryDy=0;endArrow=none;endFill=0;dashed=1;" parent="1" source="q5XF0nJhdmvQj78EgWsg-230" target="q5XF0nJhdmvQj78EgWsg-221" edge="1">
          <mxGeometry relative="1" as="geometry" />
        </mxCell>
        <mxCell id="q5XF0nJhdmvQj78EgWsg-230" value="1. create new env with args" style="rounded=0;whiteSpace=wrap;html=1;fontStyle=1;fontSize=14;fillColor=#e1d5e7;strokeColor=#9673a6;" parent="1" vertex="1">
          <mxGeometry x="1480" y="2720" width="120" height="60" as="geometry" />
        </mxCell>
        <mxCell id="q5XF0nJhdmvQj78EgWsg-231" value="C" style="whiteSpace=wrap;html=1;aspect=fixed;fontSize=18;fontStyle=1;fillColor=#f8cecc;strokeColor=#b85450;" parent="1" vertex="1">
          <mxGeometry x="1400" y="3040" width="40" height="40" as="geometry" />
        </mxCell>
        <mxCell id="q5XF0nJhdmvQj78EgWsg-234" style="edgeStyle=orthogonalEdgeStyle;rounded=0;orthogonalLoop=1;jettySize=auto;html=1;entryX=0.5;entryY=1;entryDx=0;entryDy=0;" parent="1" source="q5XF0nJhdmvQj78EgWsg-232" target="q5XF0nJhdmvQj78EgWsg-222" edge="1">
          <mxGeometry relative="1" as="geometry" />
        </mxCell>
        <mxCell id="q5XF0nJhdmvQj78EgWsg-232" value="E" style="whiteSpace=wrap;html=1;aspect=fixed;fontSize=18;fontStyle=1;fillColor=#f8cecc;strokeColor=#b85450;" parent="1" vertex="1">
          <mxGeometry x="1440" y="3040" width="40" height="40" as="geometry" />
        </mxCell>
        <mxCell id="q5XF0nJhdmvQj78EgWsg-233" value="p-n" style="whiteSpace=wrap;html=1;aspect=fixed;fontSize=18;fontStyle=1;fillColor=#f8cecc;strokeColor=#b85450;" parent="1" vertex="1">
          <mxGeometry x="1360" y="3040" width="40" height="40" as="geometry" />
        </mxCell>
        <mxCell id="q5XF0nJhdmvQj78EgWsg-251" style="edgeStyle=orthogonalEdgeStyle;rounded=0;orthogonalLoop=1;jettySize=auto;html=1;entryX=0.5;entryY=1;entryDx=0;entryDy=0;endArrow=none;endFill=0;dashed=1;" parent="1" source="q5XF0nJhdmvQj78EgWsg-235" target="q5XF0nJhdmvQj78EgWsg-231" edge="1">
          <mxGeometry relative="1" as="geometry" />
        </mxCell>
        <mxCell id="q5XF0nJhdmvQj78EgWsg-235" value="2. create new pclo with that env" style="rounded=0;whiteSpace=wrap;html=1;fontStyle=1;fontSize=14;fillColor=#e1d5e7;strokeColor=#9673a6;" parent="1" vertex="1">
          <mxGeometry x="1520" y="3080" width="120" height="60" as="geometry" />
        </mxCell>
        <mxCell id="q5XF0nJhdmvQj78EgWsg-238" value="3. pop nargs and push new pclo" style="rounded=0;whiteSpace=wrap;html=1;fontStyle=1;fontSize=14;fillColor=#e1d5e7;strokeColor=#9673a6;" parent="1" vertex="1">
          <mxGeometry x="1750" y="2930" width="120" height="60" as="geometry" />
        </mxCell>
        <mxCell id="q5XF0nJhdmvQj78EgWsg-239" value="C" style="whiteSpace=wrap;html=1;aspect=fixed;fontSize=18;fontStyle=1;fillColor=#f8cecc;strokeColor=#b85450;" parent="1" vertex="1">
          <mxGeometry x="1920" y="2880" width="40" height="40" as="geometry" />
        </mxCell>
        <mxCell id="q5XF0nJhdmvQj78EgWsg-240" value="E" style="whiteSpace=wrap;html=1;aspect=fixed;fontSize=18;fontStyle=1;fillColor=#f8cecc;strokeColor=#b85450;" parent="1" vertex="1">
          <mxGeometry x="1960" y="2880" width="40" height="40" as="geometry" />
        </mxCell>
        <mxCell id="q5XF0nJhdmvQj78EgWsg-241" value="p-n" style="whiteSpace=wrap;html=1;aspect=fixed;fontSize=18;fontStyle=1;fillColor=#f8cecc;strokeColor=#b85450;" parent="1" vertex="1">
          <mxGeometry x="1880" y="2880" width="40" height="40" as="geometry" />
        </mxCell>
        <mxCell id="q5XF0nJhdmvQj78EgWsg-242" value="" style="whiteSpace=wrap;html=1;aspect=fixed;fillColor=#dae8fc;strokeColor=#6c8ebf;" parent="1" vertex="1">
          <mxGeometry x="1880" y="2920" width="40" height="40" as="geometry" />
        </mxCell>
        <mxCell id="q5XF0nJhdmvQj78EgWsg-243" value="C" style="whiteSpace=wrap;html=1;aspect=fixed;fontSize=18;fontStyle=1" parent="1" vertex="1">
          <mxGeometry x="1720" y="3000" width="40" height="40" as="geometry" />
        </mxCell>
        <mxCell id="q5XF0nJhdmvQj78EgWsg-244" value="E" style="whiteSpace=wrap;html=1;aspect=fixed;fontSize=18;fontStyle=1" parent="1" vertex="1">
          <mxGeometry x="1760" y="3000" width="40" height="40" as="geometry" />
        </mxCell>
        <mxCell id="q5XF0nJhdmvQj78EgWsg-245" value="K" style="whiteSpace=wrap;html=1;aspect=fixed;fontSize=18;fontStyle=1" parent="1" vertex="1">
          <mxGeometry x="1800" y="3000" width="40" height="40" as="geometry" />
        </mxCell>
        <mxCell id="q5XF0nJhdmvQj78EgWsg-246" value="F" style="whiteSpace=wrap;html=1;aspect=fixed;fontSize=18;fontStyle=1" parent="1" vertex="1">
          <mxGeometry x="1840" y="3000" width="40" height="40" as="geometry" />
        </mxCell>
        <mxCell id="q5XF0nJhdmvQj78EgWsg-249" style="edgeStyle=orthogonalEdgeStyle;rounded=0;orthogonalLoop=1;jettySize=auto;html=1;entryX=0.5;entryY=1;entryDx=0;entryDy=0;" parent="1" source="q5XF0nJhdmvQj78EgWsg-247" target="q5XF0nJhdmvQj78EgWsg-242" edge="1">
          <mxGeometry relative="1" as="geometry" />
        </mxCell>
        <mxCell id="q5XF0nJhdmvQj78EgWsg-247" value="s" style="whiteSpace=wrap;html=1;aspect=fixed;fontSize=18;fontStyle=1" parent="1" vertex="1">
          <mxGeometry x="1880" y="3000" width="40" height="40" as="geometry" />
        </mxCell>
        <mxCell id="q5XF0nJhdmvQj78EgWsg-248" value="(b)" style="whiteSpace=wrap;html=1;aspect=fixed;fontSize=18;fontStyle=1" parent="1" vertex="1">
          <mxGeometry x="1920" y="3000" width="40" height="40" as="geometry" />
        </mxCell>
        <mxCell id="q5XF0nJhdmvQj78EgWsg-255" style="edgeStyle=orthogonalEdgeStyle;rounded=0;orthogonalLoop=1;jettySize=auto;html=1;entryX=0;entryY=0.5;entryDx=0;entryDy=0;" parent="1" source="q5XF0nJhdmvQj78EgWsg-253" target="q5XF0nJhdmvQj78EgWsg-254" edge="1">
          <mxGeometry relative="1" as="geometry" />
        </mxCell>
        <mxCell id="q5XF0nJhdmvQj78EgWsg-256" value="Y" style="edgeLabel;html=1;align=center;verticalAlign=middle;resizable=0;points=[];fontSize=16;fontStyle=1" parent="q5XF0nJhdmvQj78EgWsg-255" vertex="1" connectable="0">
          <mxGeometry x="-0.475" y="-2" relative="1" as="geometry">
            <mxPoint as="offset" />
          </mxGeometry>
        </mxCell>
        <mxCell id="q5XF0nJhdmvQj78EgWsg-259" style="edgeStyle=orthogonalEdgeStyle;rounded=0;orthogonalLoop=1;jettySize=auto;html=1;" parent="1" source="q5XF0nJhdmvQj78EgWsg-253" target="q5XF0nJhdmvQj78EgWsg-258" edge="1">
          <mxGeometry relative="1" as="geometry" />
        </mxCell>
        <mxCell id="q5XF0nJhdmvQj78EgWsg-260" value="N" style="edgeLabel;html=1;align=center;verticalAlign=middle;resizable=0;points=[];fontSize=16;fontStyle=1" parent="q5XF0nJhdmvQj78EgWsg-259" vertex="1" connectable="0">
          <mxGeometry x="-0.484" y="1" relative="1" as="geometry">
            <mxPoint x="-1" as="offset" />
          </mxGeometry>
        </mxCell>
        <mxCell id="q5XF0nJhdmvQj78EgWsg-253" value="kont == NULL?" style="rounded=0;whiteSpace=wrap;html=1;fontStyle=1;fontFamily=Courier New;strokeColor=default;align=center;verticalAlign=middle;fontSize=12;fontColor=default;fillColor=default;" parent="1" vertex="1">
          <mxGeometry x="920" y="3240" width="200" height="60" as="geometry" />
        </mxCell>
        <mxCell id="q5XF0nJhdmvQj78EgWsg-254" value="END" style="rounded=0;whiteSpace=wrap;html=1;fontStyle=1;fontSize=14;fillColor=#e1d5e7;strokeColor=#9673a6;" parent="1" vertex="1">
          <mxGeometry x="1200" y="3240" width="120" height="60" as="geometry" />
        </mxCell>
        <mxCell id="q5XF0nJhdmvQj78EgWsg-258" value="invoke continuation" style="rounded=0;whiteSpace=wrap;html=1;fontStyle=1;fontSize=14;fillColor=#e1d5e7;strokeColor=#9673a6;" parent="1" vertex="1">
          <mxGeometry x="960" y="3400" width="120" height="60" as="geometry" />
        </mxCell>
        <mxCell id="q5XF0nJhdmvQj78EgWsg-261" value="1. pop and save ToS" style="rounded=0;whiteSpace=wrap;html=1;fontStyle=1;fontSize=14;fillColor=#e1d5e7;strokeColor=#9673a6;" parent="1" vertex="1">
          <mxGeometry x="960" y="3560" width="120" height="60" as="geometry" />
        </mxCell>
        <mxCell id="q5XF0nJhdmvQj78EgWsg-263" value="C" style="whiteSpace=wrap;html=1;aspect=fixed;fontSize=18;fontStyle=1" parent="1" vertex="1">
          <mxGeometry x="960" y="3680" width="40" height="40" as="geometry" />
        </mxCell>
        <mxCell id="q5XF0nJhdmvQj78EgWsg-264" value="E" style="whiteSpace=wrap;html=1;aspect=fixed;fontSize=18;fontStyle=1" parent="1" vertex="1">
          <mxGeometry x="1000" y="3680" width="40" height="40" as="geometry" />
        </mxCell>
        <mxCell id="q5XF0nJhdmvQj78EgWsg-265" value="K" style="whiteSpace=wrap;html=1;aspect=fixed;fontSize=18;fontStyle=1" parent="1" vertex="1">
          <mxGeometry x="1040" y="3680" width="40" height="40" as="geometry" />
        </mxCell>
        <mxCell id="q5XF0nJhdmvQj78EgWsg-266" value="F" style="whiteSpace=wrap;html=1;aspect=fixed;fontSize=18;fontStyle=1" parent="1" vertex="1">
          <mxGeometry x="1080" y="3680" width="40" height="40" as="geometry" />
        </mxCell>
        <mxCell id="q5XF0nJhdmvQj78EgWsg-267" style="edgeStyle=orthogonalEdgeStyle;rounded=0;orthogonalLoop=1;jettySize=auto;html=1;entryX=0.5;entryY=1;entryDx=0;entryDy=0;" parent="1" source="q5XF0nJhdmvQj78EgWsg-268" edge="1">
          <mxGeometry relative="1" as="geometry">
            <mxPoint x="1140" y="3640" as="targetPoint" />
          </mxGeometry>
        </mxCell>
        <mxCell id="q5XF0nJhdmvQj78EgWsg-268" value="s" style="whiteSpace=wrap;html=1;aspect=fixed;fontSize=18;fontStyle=1" parent="1" vertex="1">
          <mxGeometry x="1120" y="3680" width="40" height="40" as="geometry" />
        </mxCell>
        <mxCell id="q5XF0nJhdmvQj78EgWsg-269" value="(b)" style="whiteSpace=wrap;html=1;aspect=fixed;fontSize=18;fontStyle=1" parent="1" vertex="1">
          <mxGeometry x="1160" y="3680" width="40" height="40" as="geometry" />
        </mxCell>
        <mxCell id="q5XF0nJhdmvQj78EgWsg-270" value="ToS" style="whiteSpace=wrap;html=1;aspect=fixed;fillColor=#dae8fc;strokeColor=#6c8ebf;fontSize=16;fontStyle=1" parent="1" vertex="1">
          <mxGeometry x="1120" y="3520" width="40" height="40" as="geometry" />
        </mxCell>
        <mxCell id="q5XF0nJhdmvQj78EgWsg-271" value="" style="whiteSpace=wrap;html=1;aspect=fixed;" parent="1" vertex="1">
          <mxGeometry x="1120" y="3600" width="40" height="40" as="geometry" />
        </mxCell>
        <mxCell id="q5XF0nJhdmvQj78EgWsg-272" value="C" style="whiteSpace=wrap;html=1;aspect=fixed;fontSize=18;fontStyle=1" parent="1" vertex="1">
          <mxGeometry x="1320" y="3720" width="40" height="40" as="geometry" />
        </mxCell>
        <mxCell id="q5XF0nJhdmvQj78EgWsg-273" value="E" style="whiteSpace=wrap;html=1;aspect=fixed;fontSize=18;fontStyle=1" parent="1" vertex="1">
          <mxGeometry x="1360" y="3720" width="40" height="40" as="geometry" />
        </mxCell>
        <mxCell id="q5XF0nJhdmvQj78EgWsg-274" value="K" style="whiteSpace=wrap;html=1;aspect=fixed;fontSize=18;fontStyle=1" parent="1" vertex="1">
          <mxGeometry x="1400" y="3720" width="40" height="40" as="geometry" />
        </mxCell>
        <mxCell id="q5XF0nJhdmvQj78EgWsg-275" value="F" style="whiteSpace=wrap;html=1;aspect=fixed;fontSize=18;fontStyle=1" parent="1" vertex="1">
          <mxGeometry x="1440" y="3720" width="40" height="40" as="geometry" />
        </mxCell>
        <mxCell id="q5XF0nJhdmvQj78EgWsg-276" style="edgeStyle=orthogonalEdgeStyle;rounded=0;orthogonalLoop=1;jettySize=auto;html=1;entryX=0.5;entryY=1;entryDx=0;entryDy=0;" parent="1" source="q5XF0nJhdmvQj78EgWsg-277" edge="1">
          <mxGeometry relative="1" as="geometry">
            <mxPoint x="1500" y="3680" as="targetPoint" />
          </mxGeometry>
        </mxCell>
        <mxCell id="q5XF0nJhdmvQj78EgWsg-277" value="s" style="whiteSpace=wrap;html=1;aspect=fixed;fontSize=18;fontStyle=1" parent="1" vertex="1">
          <mxGeometry x="1480" y="3720" width="40" height="40" as="geometry" />
        </mxCell>
        <mxCell id="q5XF0nJhdmvQj78EgWsg-278" value="(b)" style="whiteSpace=wrap;html=1;aspect=fixed;fontSize=18;fontStyle=1" parent="1" vertex="1">
          <mxGeometry x="1520" y="3720" width="40" height="40" as="geometry" />
        </mxCell>
        <mxCell id="q5XF0nJhdmvQj78EgWsg-279" value="" style="whiteSpace=wrap;html=1;aspect=fixed;fillColor=#d5e8d4;strokeColor=#82b366;" parent="1" vertex="1">
          <mxGeometry x="1480" y="3640" width="40" height="40" as="geometry" />
        </mxCell>
        <mxCell id="q5XF0nJhdmvQj78EgWsg-288" style="edgeStyle=orthogonalEdgeStyle;rounded=0;orthogonalLoop=1;jettySize=auto;html=1;dashed=1;" parent="1" source="q5XF0nJhdmvQj78EgWsg-280" target="q5XF0nJhdmvQj78EgWsg-283" edge="1">
          <mxGeometry relative="1" as="geometry" />
        </mxCell>
        <mxCell id="q5XF0nJhdmvQj78EgWsg-280" value="K" style="whiteSpace=wrap;html=1;aspect=fixed;fontSize=18;fontStyle=1;fillColor=#f8cecc;strokeColor=#b85450;" parent="1" vertex="1">
          <mxGeometry x="1200" y="3520" width="40" height="40" as="geometry" />
        </mxCell>
        <mxCell id="q5XF0nJhdmvQj78EgWsg-286" style="edgeStyle=orthogonalEdgeStyle;rounded=0;orthogonalLoop=1;jettySize=auto;html=1;exitX=0.5;exitY=1;exitDx=0;exitDy=0;" parent="1" source="q5XF0nJhdmvQj78EgWsg-281" target="q5XF0nJhdmvQj78EgWsg-274" edge="1">
          <mxGeometry relative="1" as="geometry">
            <mxPoint x="1420" y="3600" as="sourcePoint" />
          </mxGeometry>
        </mxCell>
        <mxCell id="q5XF0nJhdmvQj78EgWsg-281" value="K" style="whiteSpace=wrap;html=1;aspect=fixed;fontSize=18;fontStyle=1;fillColor=#f8cecc;strokeColor=#b85450;" parent="1" vertex="1">
          <mxGeometry x="1400" y="3520" width="40" height="40" as="geometry" />
        </mxCell>
        <mxCell id="q5XF0nJhdmvQj78EgWsg-285" style="edgeStyle=orthogonalEdgeStyle;rounded=0;orthogonalLoop=1;jettySize=auto;html=1;exitX=0.5;exitY=1;exitDx=0;exitDy=0;" parent="1" source="q5XF0nJhdmvQj78EgWsg-282" target="q5XF0nJhdmvQj78EgWsg-273" edge="1">
          <mxGeometry relative="1" as="geometry">
            <mxPoint x="1380" y="3600" as="sourcePoint" />
          </mxGeometry>
        </mxCell>
        <mxCell id="q5XF0nJhdmvQj78EgWsg-282" value="E" style="whiteSpace=wrap;html=1;aspect=fixed;fontSize=18;fontStyle=1;fillColor=#f8cecc;strokeColor=#b85450;" parent="1" vertex="1">
          <mxGeometry x="1360" y="3520" width="40" height="40" as="geometry" />
        </mxCell>
        <mxCell id="q5XF0nJhdmvQj78EgWsg-284" style="edgeStyle=orthogonalEdgeStyle;rounded=0;orthogonalLoop=1;jettySize=auto;html=1;exitX=0.5;exitY=1;exitDx=0;exitDy=0;" parent="1" source="q5XF0nJhdmvQj78EgWsg-283" target="q5XF0nJhdmvQj78EgWsg-272" edge="1">
          <mxGeometry relative="1" as="geometry">
            <mxPoint x="1340" y="3600" as="sourcePoint" />
          </mxGeometry>
        </mxCell>
        <mxCell id="q5XF0nJhdmvQj78EgWsg-283" value="C" style="whiteSpace=wrap;html=1;aspect=fixed;fontSize=18;fontStyle=1;fillColor=#f8cecc;strokeColor=#b85450;" parent="1" vertex="1">
          <mxGeometry x="1320" y="3520" width="40" height="40" as="geometry" />
        </mxCell>
        <mxCell id="q5XF0nJhdmvQj78EgWsg-287" value="2. copy K to CEKFs" style="rounded=0;whiteSpace=wrap;html=1;fontStyle=1;fontSize=14;fillColor=#e1d5e7;strokeColor=#9673a6;" parent="1" vertex="1">
          <mxGeometry x="1600" y="3600" width="120" height="60" as="geometry" />
        </mxCell>
        <mxCell id="q5XF0nJhdmvQj78EgWsg-292" style="edgeStyle=orthogonalEdgeStyle;rounded=0;orthogonalLoop=1;jettySize=auto;html=1;" parent="1" source="q5XF0nJhdmvQj78EgWsg-289" target="q5XF0nJhdmvQj78EgWsg-290" edge="1">
          <mxGeometry relative="1" as="geometry" />
        </mxCell>
        <mxCell id="q5XF0nJhdmvQj78EgWsg-289" value="s" style="whiteSpace=wrap;html=1;aspect=fixed;fontSize=18;fontStyle=1;fillColor=#f8cecc;strokeColor=#b85450;" parent="1" vertex="1">
          <mxGeometry x="1440" y="3520" width="40" height="40" as="geometry" />
        </mxCell>
        <mxCell id="q5XF0nJhdmvQj78EgWsg-294" style="edgeStyle=orthogonalEdgeStyle;rounded=0;orthogonalLoop=1;jettySize=auto;html=1;entryX=1;entryY=0.5;entryDx=0;entryDy=0;" parent="1" source="q5XF0nJhdmvQj78EgWsg-290" target="q5XF0nJhdmvQj78EgWsg-279" edge="1">
          <mxGeometry relative="1" as="geometry">
            <Array as="points">
              <mxPoint x="1540" y="3460" />
              <mxPoint x="1540" y="3660" />
            </Array>
          </mxGeometry>
        </mxCell>
        <mxCell id="q5XF0nJhdmvQj78EgWsg-290" value="" style="whiteSpace=wrap;html=1;aspect=fixed;fillColor=#d5e8d4;strokeColor=#82b366;" parent="1" vertex="1">
          <mxGeometry x="1440" y="3440" width="40" height="40" as="geometry" />
        </mxCell>
        <mxCell id="q5XF0nJhdmvQj78EgWsg-295" style="edgeStyle=orthogonalEdgeStyle;rounded=0;orthogonalLoop=1;jettySize=auto;html=1;entryX=1;entryY=0.5;entryDx=0;entryDy=0;" parent="1" source="q5XF0nJhdmvQj78EgWsg-291" target="q5XF0nJhdmvQj78EgWsg-293" edge="1">
          <mxGeometry relative="1" as="geometry">
            <Array as="points">
              <mxPoint x="1560" y="3420" />
              <mxPoint x="1560" y="3620" />
            </Array>
          </mxGeometry>
        </mxCell>
        <mxCell id="q5XF0nJhdmvQj78EgWsg-291" value="" style="whiteSpace=wrap;html=1;aspect=fixed;fillColor=#d5e8d4;strokeColor=#82b366;" parent="1" vertex="1">
          <mxGeometry x="1440" y="3400" width="40" height="40" as="geometry" />
        </mxCell>
        <mxCell id="q5XF0nJhdmvQj78EgWsg-293" value="" style="whiteSpace=wrap;html=1;aspect=fixed;fillColor=#d5e8d4;strokeColor=#82b366;" parent="1" vertex="1">
          <mxGeometry x="1480" y="3600" width="40" height="40" as="geometry" />
        </mxCell>
        <mxCell id="q5XF0nJhdmvQj78EgWsg-296" value="C" style="whiteSpace=wrap;html=1;aspect=fixed;fontSize=18;fontStyle=1" parent="1" vertex="1">
          <mxGeometry x="960" y="3920" width="40" height="40" as="geometry" />
        </mxCell>
        <mxCell id="q5XF0nJhdmvQj78EgWsg-297" value="E" style="whiteSpace=wrap;html=1;aspect=fixed;fontSize=18;fontStyle=1" parent="1" vertex="1">
          <mxGeometry x="1000" y="3920" width="40" height="40" as="geometry" />
        </mxCell>
        <mxCell id="q5XF0nJhdmvQj78EgWsg-298" value="K" style="whiteSpace=wrap;html=1;aspect=fixed;fontSize=18;fontStyle=1" parent="1" vertex="1">
          <mxGeometry x="1040" y="3920" width="40" height="40" as="geometry" />
        </mxCell>
        <mxCell id="q5XF0nJhdmvQj78EgWsg-299" value="F" style="whiteSpace=wrap;html=1;aspect=fixed;fontSize=18;fontStyle=1" parent="1" vertex="1">
          <mxGeometry x="1080" y="3920" width="40" height="40" as="geometry" />
        </mxCell>
        <mxCell id="q5XF0nJhdmvQj78EgWsg-300" style="edgeStyle=orthogonalEdgeStyle;rounded=0;orthogonalLoop=1;jettySize=auto;html=1;entryX=0.5;entryY=1;entryDx=0;entryDy=0;" parent="1" source="q5XF0nJhdmvQj78EgWsg-301" edge="1">
          <mxGeometry relative="1" as="geometry">
            <mxPoint x="1140" y="3880" as="targetPoint" />
          </mxGeometry>
        </mxCell>
        <mxCell id="q5XF0nJhdmvQj78EgWsg-301" value="s" style="whiteSpace=wrap;html=1;aspect=fixed;fontSize=18;fontStyle=1" parent="1" vertex="1">
          <mxGeometry x="1120" y="3920" width="40" height="40" as="geometry" />
        </mxCell>
        <mxCell id="q5XF0nJhdmvQj78EgWsg-302" value="(b)" style="whiteSpace=wrap;html=1;aspect=fixed;fontSize=18;fontStyle=1" parent="1" vertex="1">
          <mxGeometry x="1160" y="3920" width="40" height="40" as="geometry" />
        </mxCell>
        <mxCell id="q5XF0nJhdmvQj78EgWsg-303" value="" style="whiteSpace=wrap;html=1;aspect=fixed;fillColor=#d5e8d4;strokeColor=#82b366;" parent="1" vertex="1">
          <mxGeometry x="1120" y="3840" width="40" height="40" as="geometry" />
        </mxCell>
        <mxCell id="q5XF0nJhdmvQj78EgWsg-304" value="" style="whiteSpace=wrap;html=1;aspect=fixed;fillColor=#d5e8d4;strokeColor=#82b366;" parent="1" vertex="1">
          <mxGeometry x="1120" y="3800" width="40" height="40" as="geometry" />
        </mxCell>
        <mxCell id="q5XF0nJhdmvQj78EgWsg-305" value="ToS" style="whiteSpace=wrap;html=1;aspect=fixed;fillColor=#dae8fc;strokeColor=#6c8ebf;fontSize=16;fontStyle=1" parent="1" vertex="1">
          <mxGeometry x="1120" y="3760" width="40" height="40" as="geometry" />
        </mxCell>
        <mxCell id="q5XF0nJhdmvQj78EgWsg-306" value="3. restore ToS" style="rounded=0;whiteSpace=wrap;html=1;fontStyle=1;fontSize=14;fillColor=#e1d5e7;strokeColor=#9673a6;" parent="1" vertex="1">
          <mxGeometry x="960" y="3820" width="120" height="60" as="geometry" />
        </mxCell>
        <mxCell id="WkOIs3FunbEa-x-7-6zS-1" value="makeCont" style="rounded=0;whiteSpace=wrap;html=1;fontStyle=1;fontSize=14;fillColor=#e1d5e7;strokeColor=#9673a6;" parent="1" vertex="1">
          <mxGeometry x="1240" y="4200" width="120" height="60" as="geometry" />
        </mxCell>
        <mxCell id="WkOIs3FunbEa-x-7-6zS-2" value="C" style="whiteSpace=wrap;html=1;aspect=fixed;fontSize=18;fontStyle=1" parent="1" vertex="1">
          <mxGeometry x="1280" y="4520" width="40" height="40" as="geometry" />
        </mxCell>
        <mxCell id="WkOIs3FunbEa-x-7-6zS-3" value="E" style="whiteSpace=wrap;html=1;aspect=fixed;fontSize=18;fontStyle=1" parent="1" vertex="1">
          <mxGeometry x="1320" y="4520" width="40" height="40" as="geometry" />
        </mxCell>
        <mxCell id="WkOIs3FunbEa-x-7-6zS-4" value="K" style="whiteSpace=wrap;html=1;aspect=fixed;fontSize=18;fontStyle=1" parent="1" vertex="1">
          <mxGeometry x="1360" y="4520" width="40" height="40" as="geometry" />
        </mxCell>
        <mxCell id="WkOIs3FunbEa-x-7-6zS-5" value="F" style="whiteSpace=wrap;html=1;aspect=fixed;fontSize=18;fontStyle=1" parent="1" vertex="1">
          <mxGeometry x="1400" y="4520" width="40" height="40" as="geometry" />
        </mxCell>
        <mxCell id="WkOIs3FunbEa-x-7-6zS-22" style="edgeStyle=orthogonalEdgeStyle;rounded=0;orthogonalLoop=1;jettySize=auto;html=1;" parent="1" source="WkOIs3FunbEa-x-7-6zS-6" target="WkOIs3FunbEa-x-7-6zS-8" edge="1">
          <mxGeometry relative="1" as="geometry" />
        </mxCell>
        <mxCell id="WkOIs3FunbEa-x-7-6zS-6" value="s" style="whiteSpace=wrap;html=1;aspect=fixed;fontSize=18;fontStyle=1" parent="1" vertex="1">
          <mxGeometry x="1440" y="4520" width="40" height="40" as="geometry" />
        </mxCell>
        <mxCell id="WkOIs3FunbEa-x-7-6zS-7" value="(b)" style="whiteSpace=wrap;html=1;aspect=fixed;fontSize=18;fontStyle=1" parent="1" vertex="1">
          <mxGeometry x="1480" y="4520" width="40" height="40" as="geometry" />
        </mxCell>
        <mxCell id="WkOIs3FunbEa-x-7-6zS-8" value="" style="whiteSpace=wrap;html=1;aspect=fixed;fillColor=#d5e8d4;strokeColor=#82b366;" parent="1" vertex="1">
          <mxGeometry x="1440" y="4440" width="40" height="40" as="geometry" />
        </mxCell>
        <mxCell id="WkOIs3FunbEa-x-7-6zS-9" style="edgeStyle=orthogonalEdgeStyle;rounded=0;orthogonalLoop=1;jettySize=auto;html=1;exitX=0.5;exitY=1;exitDx=0;exitDy=0;startArrow=classic;startFill=1;endArrow=none;endFill=0;" parent="1" source="WkOIs3FunbEa-x-7-6zS-10" target="WkOIs3FunbEa-x-7-6zS-4" edge="1">
          <mxGeometry relative="1" as="geometry">
            <mxPoint x="1380" y="4400" as="sourcePoint" />
          </mxGeometry>
        </mxCell>
        <mxCell id="WkOIs3FunbEa-x-7-6zS-10" value="K" style="whiteSpace=wrap;html=1;aspect=fixed;fontSize=18;fontStyle=1;fillColor=#f8cecc;strokeColor=#b85450;" parent="1" vertex="1">
          <mxGeometry x="1360" y="4320" width="40" height="40" as="geometry" />
        </mxCell>
        <mxCell id="WkOIs3FunbEa-x-7-6zS-11" style="edgeStyle=orthogonalEdgeStyle;rounded=0;orthogonalLoop=1;jettySize=auto;html=1;exitX=0.5;exitY=1;exitDx=0;exitDy=0;startArrow=classic;startFill=1;endArrow=none;endFill=0;" parent="1" source="WkOIs3FunbEa-x-7-6zS-12" target="WkOIs3FunbEa-x-7-6zS-3" edge="1">
          <mxGeometry relative="1" as="geometry">
            <mxPoint x="1340" y="4400" as="sourcePoint" />
          </mxGeometry>
        </mxCell>
        <mxCell id="WkOIs3FunbEa-x-7-6zS-12" value="E" style="whiteSpace=wrap;html=1;aspect=fixed;fontSize=18;fontStyle=1;fillColor=#f8cecc;strokeColor=#b85450;" parent="1" vertex="1">
          <mxGeometry x="1320" y="4320" width="40" height="40" as="geometry" />
        </mxCell>
        <mxCell id="WkOIs3FunbEa-x-7-6zS-23" style="edgeStyle=orthogonalEdgeStyle;rounded=0;orthogonalLoop=1;jettySize=auto;html=1;startArrow=classic;startFill=1;endArrow=none;endFill=0;" parent="1" source="WkOIs3FunbEa-x-7-6zS-14" edge="1">
          <mxGeometry relative="1" as="geometry">
            <mxPoint x="1240" y="4340" as="targetPoint" />
          </mxGeometry>
        </mxCell>
        <mxCell id="WkOIs3FunbEa-x-7-6zS-14" value="C" style="whiteSpace=wrap;html=1;aspect=fixed;fontSize=18;fontStyle=1;fillColor=#f8cecc;strokeColor=#b85450;" parent="1" vertex="1">
          <mxGeometry x="1280" y="4320" width="40" height="40" as="geometry" />
        </mxCell>
        <mxCell id="WkOIs3FunbEa-x-7-6zS-15" style="edgeStyle=orthogonalEdgeStyle;rounded=0;orthogonalLoop=1;jettySize=auto;html=1;" parent="1" source="WkOIs3FunbEa-x-7-6zS-16" target="WkOIs3FunbEa-x-7-6zS-18" edge="1">
          <mxGeometry relative="1" as="geometry" />
        </mxCell>
        <mxCell id="WkOIs3FunbEa-x-7-6zS-16" value="s" style="whiteSpace=wrap;html=1;aspect=fixed;fontSize=18;fontStyle=1;fillColor=#f8cecc;strokeColor=#b85450;" parent="1" vertex="1">
          <mxGeometry x="1400" y="4320" width="40" height="40" as="geometry" />
        </mxCell>
        <mxCell id="WkOIs3FunbEa-x-7-6zS-17" style="edgeStyle=orthogonalEdgeStyle;rounded=0;orthogonalLoop=1;jettySize=auto;html=1;entryX=1;entryY=0.5;entryDx=0;entryDy=0;endArrow=none;endFill=0;startArrow=classic;startFill=1;" parent="1" source="WkOIs3FunbEa-x-7-6zS-18" target="WkOIs3FunbEa-x-7-6zS-8" edge="1">
          <mxGeometry relative="1" as="geometry">
            <Array as="points">
              <mxPoint x="1500" y="4260" />
              <mxPoint x="1500" y="4460" />
            </Array>
          </mxGeometry>
        </mxCell>
        <mxCell id="WkOIs3FunbEa-x-7-6zS-18" value="" style="whiteSpace=wrap;html=1;aspect=fixed;fillColor=#d5e8d4;strokeColor=#82b366;" parent="1" vertex="1">
          <mxGeometry x="1400" y="4240" width="40" height="40" as="geometry" />
        </mxCell>
        <mxCell id="WkOIs3FunbEa-x-7-6zS-19" style="edgeStyle=orthogonalEdgeStyle;rounded=0;orthogonalLoop=1;jettySize=auto;html=1;entryX=1;entryY=0.5;entryDx=0;entryDy=0;startArrow=classic;startFill=1;endArrow=none;endFill=0;" parent="1" source="WkOIs3FunbEa-x-7-6zS-20" target="WkOIs3FunbEa-x-7-6zS-21" edge="1">
          <mxGeometry relative="1" as="geometry">
            <Array as="points">
              <mxPoint x="1520" y="4220" />
              <mxPoint x="1520" y="4420" />
            </Array>
          </mxGeometry>
        </mxCell>
        <mxCell id="WkOIs3FunbEa-x-7-6zS-20" value="" style="whiteSpace=wrap;html=1;aspect=fixed;fillColor=#d5e8d4;strokeColor=#82b366;" parent="1" vertex="1">
          <mxGeometry x="1400" y="4200" width="40" height="40" as="geometry" />
        </mxCell>
        <mxCell id="WkOIs3FunbEa-x-7-6zS-21" value="" style="whiteSpace=wrap;html=1;aspect=fixed;fillColor=#d5e8d4;strokeColor=#82b366;" parent="1" vertex="1">
          <mxGeometry x="1440" y="4400" width="40" height="40" as="geometry" />
        </mxCell>
        <mxCell id="WkOIs3FunbEa-x-7-6zS-26" value="C" style="whiteSpace=wrap;html=1;aspect=fixed;fontSize=18;fontStyle=1" parent="1" vertex="1">
          <mxGeometry x="-120" y="1040" width="40" height="40" as="geometry" />
        </mxCell>
        <mxCell id="WkOIs3FunbEa-x-7-6zS-27" value="E" style="whiteSpace=wrap;html=1;aspect=fixed;fontSize=18;fontStyle=1" parent="1" vertex="1">
          <mxGeometry x="-160" y="1040" width="40" height="40" as="geometry" />
        </mxCell>
        <mxCell id="WkOIs3FunbEa-x-7-6zS-28" value="K" style="whiteSpace=wrap;html=1;aspect=fixed;fontSize=18;fontStyle=1" parent="1" vertex="1">
          <mxGeometry x="-80" y="1040" width="40" height="40" as="geometry" />
        </mxCell>
        <mxCell id="WkOIs3FunbEa-x-7-6zS-29" value="F" style="whiteSpace=wrap;html=1;aspect=fixed;fontSize=18;fontStyle=1" parent="1" vertex="1">
          <mxGeometry x="-40" y="1040" width="40" height="40" as="geometry" />
        </mxCell>
        <mxCell id="WkOIs3FunbEa-x-7-6zS-30" value="s" style="whiteSpace=wrap;html=1;aspect=fixed;fontSize=18;fontStyle=1" parent="1" vertex="1">
          <mxGeometry x="-200" y="1040" width="40" height="40" as="geometry" />
        </mxCell>
        <mxCell id="WkOIs3FunbEa-x-7-6zS-31" value="(b)" style="whiteSpace=wrap;html=1;aspect=fixed;fontSize=18;fontStyle=1" parent="1" vertex="1">
          <mxGeometry x="40" y="1040" width="40" height="40" as="geometry" />
        </mxCell>
        <mxCell id="WkOIs3FunbEa-x-7-6zS-32" value="s" style="whiteSpace=wrap;html=1;aspect=fixed;fontSize=18;fontStyle=1" parent="1" vertex="1">
          <mxGeometry x="-200" y="1200" width="40" height="40" as="geometry" />
        </mxCell>
        <mxCell id="WkOIs3FunbEa-x-7-6zS-33" value="E" style="whiteSpace=wrap;html=1;aspect=fixed;fontSize=18;fontStyle=1" parent="1" vertex="1">
          <mxGeometry x="-160" y="1200" width="40" height="40" as="geometry" />
        </mxCell>
        <mxCell id="WkOIs3FunbEa-x-7-6zS-34" value="C" style="whiteSpace=wrap;html=1;aspect=fixed;fontSize=18;fontStyle=1" parent="1" vertex="1">
          <mxGeometry x="-120" y="1120" width="40" height="40" as="geometry" />
        </mxCell>
        <mxCell id="WkOIs3FunbEa-x-7-6zS-35" value="E" style="whiteSpace=wrap;html=1;aspect=fixed;fontSize=18;fontStyle=1" parent="1" vertex="1">
          <mxGeometry x="-160" y="1120" width="40" height="40" as="geometry" />
        </mxCell>
        <mxCell id="WkOIs3FunbEa-x-7-6zS-36" value="K" style="whiteSpace=wrap;html=1;aspect=fixed;fontSize=18;fontStyle=1" parent="1" vertex="1">
          <mxGeometry x="-80" y="1120" width="40" height="40" as="geometry" />
        </mxCell>
        <mxCell id="WkOIs3FunbEa-x-7-6zS-37" value="s" style="whiteSpace=wrap;html=1;aspect=fixed;fontSize=18;fontStyle=1" parent="1" vertex="1">
          <mxGeometry x="-200" y="1120" width="40" height="40" as="geometry" />
        </mxCell>
        <mxCell id="WkOIs3FunbEa-x-7-6zS-38" value="CEKFS" style="rounded=0;whiteSpace=wrap;html=1;fontSize=18;fontStyle=1" parent="1" vertex="1">
          <mxGeometry x="-360" y="1040" width="120" height="40" as="geometry" />
        </mxCell>
        <mxCell id="WkOIs3FunbEa-x-7-6zS-39" value="E" style="whiteSpace=wrap;html=1;aspect=fixed;fontSize=18;fontStyle=1" parent="1" vertex="1">
          <mxGeometry x="-280" y="1200" width="40" height="40" as="geometry" />
        </mxCell>
        <mxCell id="WkOIs3FunbEa-x-7-6zS-40" value="K" style="whiteSpace=wrap;html=1;aspect=fixed;fontSize=18;fontStyle=1" parent="1" vertex="1">
          <mxGeometry x="-280" y="1120" width="40" height="40" as="geometry" />
        </mxCell>
        <mxCell id="WkOIs3FunbEa-x-7-6zS-41" value="C" style="whiteSpace=wrap;html=1;aspect=fixed;fontSize=18;fontStyle=1" parent="1" vertex="1">
          <mxGeometry x="-120" y="1080" width="40" height="40" as="geometry" />
        </mxCell>
        <mxCell id="WkOIs3FunbEa-x-7-6zS-42" value="E" style="whiteSpace=wrap;html=1;aspect=fixed;fontSize=18;fontStyle=1" parent="1" vertex="1">
          <mxGeometry x="-160" y="1080" width="40" height="40" as="geometry" />
        </mxCell>
        <mxCell id="WkOIs3FunbEa-x-7-6zS-43" value="K" style="whiteSpace=wrap;html=1;aspect=fixed;fontSize=18;fontStyle=1" parent="1" vertex="1">
          <mxGeometry x="-80" y="1080" width="40" height="40" as="geometry" />
        </mxCell>
        <mxCell id="WkOIs3FunbEa-x-7-6zS-44" value="F" style="whiteSpace=wrap;html=1;aspect=fixed;fontSize=18;fontStyle=1" parent="1" vertex="1">
          <mxGeometry x="-40" y="1080" width="40" height="40" as="geometry" />
        </mxCell>
        <mxCell id="WkOIs3FunbEa-x-7-6zS-45" value="s" style="whiteSpace=wrap;html=1;aspect=fixed;fontSize=18;fontStyle=1" parent="1" vertex="1">
          <mxGeometry x="-200" y="1080" width="40" height="40" as="geometry" />
        </mxCell>
        <mxCell id="WkOIs3FunbEa-x-7-6zS-46" value="F" style="whiteSpace=wrap;html=1;aspect=fixed;fontSize=18;fontStyle=1" parent="1" vertex="1">
          <mxGeometry x="-280" y="1080" width="40" height="40" as="geometry" />
        </mxCell>
        <mxCell id="WkOIs3FunbEa-x-7-6zS-47" value="C" style="whiteSpace=wrap;html=1;aspect=fixed;fontSize=18;fontStyle=1" parent="1" vertex="1">
          <mxGeometry x="-120" y="1160" width="40" height="40" as="geometry" />
        </mxCell>
        <mxCell id="WkOIs3FunbEa-x-7-6zS-48" value="E" style="whiteSpace=wrap;html=1;aspect=fixed;fontSize=18;fontStyle=1" parent="1" vertex="1">
          <mxGeometry x="-160" y="1160" width="40" height="40" as="geometry" />
        </mxCell>
        <mxCell id="WkOIs3FunbEa-x-7-6zS-49" value="Cl" style="whiteSpace=wrap;html=1;aspect=fixed;fontSize=18;fontStyle=1" parent="1" vertex="1">
          <mxGeometry x="-280" y="1160" width="40" height="40" as="geometry" />
        </mxCell>
      </root>
    </mxGraphModel>
  </diagram>
</mxfile>
